<svg width="30" height="18" viewBox="0 0 30 18" fill="none" xmlns="http://www.w3.org/2000/svg">
<path d="M27.1424 6.14746C27.1093 6.14746 27.0761 6.14746 27.043 6.14746L8.82948 6.02124V6.02592C8.14807 5.99319 7.45719 6.23161 6.93667 6.74118C5.94768 7.7089 5.93821 9.28904 6.92247 10.2661C7.43826 10.7804 8.11967 11.0234 8.79635 11.0001L27.0194 11.1263C27.6818 11.145 28.3538 10.9066 28.8601 10.4064C29.8491 9.43864 29.8586 7.8585 28.8743 6.88143C28.3916 6.40926 27.7718 6.16616 27.1424 6.14746Z" fill="url(#paint0_linear_3_18)"/>
<path d="M27.0054 0.0701242L17.1391 0C17.106 0 17.0729 0 17.0398 0C16.4104 0.00934992 15.7858 0.247773 15.3031 0.719943C14.3141 1.68766 14.3047 3.2678 15.2889 4.24486C15.7621 4.71703 16.382 4.96013 17.0067 4.97883H17.0161C17.0492 4.97883 17.0824 4.97883 17.1155 4.97883L27.0385 5.04895C27.6963 5.0583 28.354 4.81988 28.8604 4.32901C29.8494 3.36129 29.8588 1.78116 28.8746 0.804093C28.3588 0.294522 27.6774 0.0514244 27.0054 0.0701242Z" fill="url(#paint1_linear_3_18)"/>
<path d="M27.218 12.1644H27.1376C27.1044 12.1644 27.0761 12.1644 27.0429 12.1644L2.56892 12.0008C1.91117 11.9868 1.24869 12.2299 0.747094 12.7208C-0.241898 13.6885 -0.251362 15.2686 0.732898 16.2457C1.23922 16.7506 1.91117 16.9937 2.57839 16.9797L27.0098 17.1433C27.0477 17.1433 27.0808 17.1433 27.1186 17.1433H27.1849V17.1386C27.7906 17.1152 28.3916 16.8768 28.8553 16.4187C29.8443 15.4509 29.8537 13.8708 28.8695 12.8937C28.4105 12.4403 27.819 12.2018 27.218 12.1644Z" fill="url(#paint2_linear_3_18)"/>
<defs>
<linearGradient id="paint0_linear_3_18" x1="6.18589" y1="8.57587" x2="29.601" y2="8.57587" gradientUnits="userSpaceOnUse">
<stop stop-color="#57EFB8"/>
<stop offset="0.00934389" stop-color="#57EFB8"/>
<stop offset="0.2809" stop-color="#57EFB8"/>
<stop offset="0.6685" stop-color="#01BCBD"/>
<stop offset="0.8876" stop-color="#00A1D4"/>
<stop offset="1" stop-color="#00A1D4"/>
</linearGradient>
<linearGradient id="paint1_linear_3_18" x1="14.5498" y1="2.52705" x2="29.6013" y2="2.52705" gradientUnits="userSpaceOnUse">
<stop stop-color="#57EFB8"/>
<stop offset="0.00934389" stop-color="#57EFB8"/>
<stop offset="0.2809" stop-color="#57EFB8"/>
<stop offset="0.6685" stop-color="#01BCBD"/>
<stop offset="0.8876" stop-color="#00A1D4"/>
<stop offset="1" stop-color="#00A1D4"/>
</linearGradient>
<linearGradient id="paint2_linear_3_18" x1="-0.000564906" y1="14.5732" x2="29.6009" y2="14.5732" gradientUnits="userSpaceOnUse">
<stop stop-color="#57EFB8"/>
<stop offset="0.00934389" stop-color="#57EFB8"/>
<stop offset="0.2809" stop-color="#57EFB8"/>
<stop offset="0.6685" stop-color="#01BCBD"/>
<stop offset="0.8876" stop-color="#00A1D4"/>
<stop offset="1" stop-color="#00A1D4"/>
</linearGradient>
</defs>
</svg>
