<svg width="1440" height="346" viewBox="0 0 1440 346" fill="none" xmlns="http://www.w3.org/2000/svg">
<g opacity="0.4">
<path d="M442.644 31.2617H453.038V83.3987V85.3987H455.038H500.161V130.531H456.675H454.675V132.531V191.47C454.675 198.526 456.83 204.408 461.024 208.524C465.214 212.635 471.203 214.751 478.42 214.751H501.184V266.657H458.773C438.455 266.657 422.339 260.531 411.307 249.578C400.277 238.626 394.105 222.626 394.105 202.439V132.531V130.531H392.105H359.773V118.419L442.644 31.2617Z" stroke="url(#paint0_linear_222_2057)" stroke-width="4"/>
<path d="M638.362 84.5449H653.451V138.928H630.38C618.71 138.928 609.944 141.449 604.147 147.442C598.364 153.419 595.941 162.432 595.941 174.441V266.612H535.371V85.4042H575.409L584.94 104.857L586.264 107.559L588.243 105.293C600.994 90.6935 616.516 84.5449 638.362 84.5449Z" stroke="url(#paint1_linear_222_2057)" stroke-width="4"/>
<path d="M681.844 85.4043H742.414V266.612H681.844V85.4043Z" stroke="url(#paint2_linear_222_2057)" stroke-width="4"/>
<path d="M968.415 155.686V266.61H907.845V164.482C907.845 153.494 905.771 144.917 901.31 139.052C896.769 133.083 889.999 130.232 881.388 130.232C870.817 130.232 862.288 133.898 856.438 140.838C850.629 147.73 847.666 157.609 847.666 169.688V266.61H787.096V85.4025H829.15L837.465 103.35L838.732 106.086L840.759 103.855C854.316 88.9404 874.586 79.9434 898.324 79.9434C919.58 79.9434 937.049 87.3915 949.214 100.472C961.392 113.567 968.415 132.482 968.415 155.686Z" stroke="url(#paint3_linear_222_2057)" stroke-width="4"/>
<path d="M1011.01 85.4043H1071.58V266.612H1011.01V85.4043Z" stroke="url(#paint4_linear_222_2057)" stroke-width="4"/>
<path d="M1180.16 31.2617H1190.56V83.3987V85.3987H1192.56H1237.68V130.531H1194.2H1192.2V132.531V191.47C1192.2 198.526 1194.35 204.408 1198.54 208.524C1202.73 212.635 1208.72 214.751 1215.94 214.751H1238.7V266.657H1196.29C1175.98 266.657 1159.86 260.531 1148.83 249.578C1137.8 238.626 1131.63 222.626 1131.63 202.439V132.531V130.531H1129.63H1097.29V118.419L1180.16 31.2617Z" stroke="url(#paint5_linear_222_2057)" stroke-width="4"/>
<path d="M740.605 30.0761C740.605 45.5593 727.893 58.1521 712.161 58.1521C696.43 58.1521 683.718 45.5593 683.718 30.0761C683.718 14.5929 696.43 2 712.161 2C727.893 2 740.605 14.5929 740.605 30.0761Z" stroke="url(#paint6_linear_222_2057)" stroke-width="4"/>
<path d="M1070.77 30.0761C1070.77 45.5593 1058.06 58.1521 1042.33 58.1521C1026.6 58.1521 1013.88 45.5593 1013.88 30.0761C1013.88 14.5929 1026.6 2 1042.33 2C1058.06 2 1070.77 14.5929 1070.77 30.0761Z" stroke="url(#paint7_linear_222_2057)" stroke-width="4"/>
<path d="M1244.49 315.924C1244.49 331.407 1231.78 344 1216.05 344C1200.32 344 1187.61 331.407 1187.61 315.924C1187.61 300.441 1200.32 287.848 1216.05 287.848C1231.78 287.848 1244.49 300.441 1244.49 315.924Z" stroke="url(#paint8_linear_222_2057)" stroke-width="4"/>
<path d="M1264.61 116.896L1333.62 268.288L1333.97 269.047L1333.67 269.827C1329.69 280.325 1325.85 287.491 1319.86 291.918C1313.84 296.371 1305.99 297.807 1294.65 297.807H1280.54V343.546H1298.59C1320.26 343.546 1336.02 338.97 1349.19 328.262C1362.45 317.485 1373.29 300.328 1384.72 274.675L1264.61 116.896ZM1264.61 116.896H1264.71L1263.42 114.066L1250.28 85.2527H1311.4L1323.23 115.622L1323.73 116.896H1323.83L1359.46 208.227L1361.39 213.172L1363.2 208.183L1396.39 116.896H1396.44L1396.92 115.579L1407.95 85.2021H1468.96L1456.05 114.028L1456.04 114.034L1384.72 274.673L1264.61 116.896Z" stroke="url(#paint9_linear_222_2057)" stroke-width="4"/>
<path d="M65.4834 134.633V134.498L260.404 135.849H260.417H260.42H260.422H260.424H260.426H260.428H260.43H260.432H260.434H260.436H260.438H260.44H260.443H260.445H260.447H260.449H260.451H260.453H260.455H260.457H260.459H260.461H260.464H260.466H260.468H260.47H260.472H260.474H260.476H260.478H260.48H260.482H260.485H260.487H260.489H260.491H260.493H260.495H260.497H260.499H260.501H260.503H260.506H260.508H260.51H260.512H260.514H260.516H260.518H260.52H260.522H260.524H260.527H260.529H260.531H260.533H260.535H260.537H260.539H260.541H260.543H260.545H260.548H260.55H260.552H260.554H260.556H260.558H260.56H260.562H260.564H260.566H260.568H260.571H260.573H260.575H260.577H260.579H260.581H260.583H260.585H260.587H260.589H260.592H260.594H260.596H260.598H260.6H260.602H260.604H260.606H260.608H260.61H260.613H260.615H260.617H260.619H260.621H260.623H260.625H260.627H260.629H260.631H260.634H260.636H260.638H260.64H260.642H260.644H260.646H260.648H260.65H260.652H260.655H260.657H260.659H260.661H260.663H260.665H260.667H260.669H260.671H260.673H260.676H260.678H260.68H260.682H260.684H260.686H260.688H260.69H260.692H260.694H260.697H260.699H260.701H260.703H260.705H260.707H260.709H260.711H260.713H260.715H260.717H260.72H260.722H260.724H260.726H260.728H260.73H260.732H260.734H260.736H260.738H260.741H260.743H260.745H260.747H260.749H260.751H260.753H260.755H260.757H260.759H260.762H260.764H260.766H260.768H260.77H260.772H260.774H260.776H260.778H260.78H260.783H260.785H260.787H260.789H260.791H260.793H260.795H260.797H260.799H260.801H260.804H260.806H260.808H260.81H260.812H260.814H260.816H260.818H260.82H260.822H260.825H260.827H260.829H260.831H260.833H260.835H260.837H260.839H260.841H260.843H260.846H260.848H260.85H260.852H260.854H260.856H260.858H260.86H260.862H260.864H260.867H260.869H260.871H260.873H260.875H260.877H260.879H260.881H260.883H260.885H260.887H260.89H260.892H260.894H260.896H260.898H260.9H260.902H260.904H260.906H260.908H260.911H260.913H260.915H260.917H260.919H260.921H260.923H260.925H260.927H260.929H260.932H260.934H260.936H260.938H260.94H260.942H260.944H260.946H260.948H260.95H260.953H260.955H260.957H260.959H260.961H260.963H260.965H260.967H260.969H260.971H260.974H260.976H260.978H260.98H260.982H260.984H260.986H260.988H260.99H260.992H260.995H260.997H260.999H261.001H261.003H261.005H261.007H261.009H261.011H261.013H261.016H261.018H261.02H261.022H261.024H261.026H261.028H261.03H261.032H261.034H261.036H261.039H261.041H261.043H261.045H261.047H261.049H261.051H261.053H261.055H261.057H261.06H261.062H261.064H261.066H261.068H261.07H261.072H261.074H261.076H261.078H261.081H261.083H261.085H261.087H261.089H261.091H261.093H261.095H261.097H261.099H261.102H261.104H261.106H261.108H261.11H261.112H261.114H261.116H261.118H261.12H261.123H261.125H261.127H261.129H261.131H261.133H261.135H261.137H261.139H261.141H261.144H261.146H261.148H261.15H261.152H261.154H261.156H261.158H261.16H261.162H261.164H261.167H261.169H261.171H261.173H261.175H261.177H261.179H261.181H261.183H261.185H261.188H261.19H261.192H261.194H261.196H261.198H261.2H261.202H261.204H261.206H261.209H261.211H261.213H261.215H261.217H261.219H261.221H261.223H261.225H261.227H261.23H261.232H261.234H261.236H261.238H261.24H261.242H261.244H261.246H261.248H261.251H261.253H261.255H261.257H261.259H261.261H261.263H261.265H261.267H261.269H261.272H261.274H261.276H261.278H261.28H261.282H261.284H261.286H261.288H261.29H261.293H261.295H261.297H261.299H261.301H261.303H261.305H261.307H261.309H261.311H261.313H261.316H261.318H261.32H261.322H261.324H261.326H261.328H261.33H261.332H261.334H261.337H261.339H261.341H261.343H261.345H261.347H261.349H261.351H261.353H261.355H261.358H261.36H261.362H261.364H261.366H261.368H261.37H261.372H261.374H261.376H261.379H261.381H261.383H261.385H261.387H261.389H261.391H261.393H261.395H261.397H261.4H261.402H261.404H261.406H261.408H261.41H261.412H261.414H261.416H261.418H261.421H261.423H261.425H261.427H261.429H261.431H261.433H261.435H261.437H261.439H261.441H261.444H261.446H261.448H261.45H261.452H261.454H261.456H261.458H261.46H261.462C267.776 136.044 273.98 138.483 278.815 143.21C288.657 152.986 288.563 168.785 278.666 178.469L278.659 178.476C273.596 183.478 266.868 185.871 260.218 185.684L260.197 185.683L260.175 185.683L63.1391 184.318L63.0976 184.318L63.0562 184.319C56.2648 184.554 49.4418 182.116 44.276 176.966L44.2729 176.963C34.4254 167.187 34.5175 151.384 44.4162 141.698L44.4165 141.698C49.627 136.597 56.5467 134.204 63.3875 134.533L65.4834 134.633Z" stroke="url(#paint10_linear_222_2057)" stroke-width="4"/>
<path d="M259.975 70.1356L260.01 70.1359L260.045 70.1349C266.794 69.9471 273.625 72.3879 278.793 77.4938C288.637 87.2685 288.545 103.067 278.651 112.752C273.575 117.671 266.983 120.063 260.376 119.969L260.369 119.969L260.362 119.969L153.069 119.211V119.211H153.055H153.052H153.05H153.048H153.046H153.044H153.042H153.04H153.038H153.036H153.034H153.031H153.029H153.027H153.025H153.023H153.021H153.019H153.017H153.015H153.013H153.01H153.008H153.006H153.004H153.002H153H152.998H152.996H152.994H152.992H152.989H152.987H152.985H152.983H152.981H152.979H152.977H152.975H152.973H152.971H152.968H152.966H152.964H152.962H152.96H152.958H152.956H152.954H152.952H152.95H152.947H152.945H152.943H152.941H152.939H152.937H152.935H152.933H152.931H152.929H152.926H152.924H152.922H152.92H152.918H152.916H152.914H152.912H152.91H152.908H152.906H152.903H152.901H152.899H152.897H152.895H152.893H152.891H152.889H152.887H152.885H152.882H152.88H152.878H152.876H152.874H152.872H152.87H152.868H152.866H152.864H152.861H152.859H152.857H152.855H152.853H152.851H152.849H152.847H152.845H152.843H152.84H152.838H152.836H152.834H152.832H152.83H152.828H152.826H152.824H152.822H152.819H152.817H152.815H152.813H152.811H152.809H152.807H152.805H152.803H152.801H152.798H152.796H152.794H152.792H152.79H152.788H152.786H152.784H152.782H152.78H152.777H152.775H152.773H152.771H152.769H152.767H152.765H152.763H152.761H152.759H152.757H152.754H152.752H152.75H152.748H152.746H152.744H152.742H152.74H152.738H152.736H152.733H152.731H152.729H152.727H152.725H152.723H152.721H152.719H152.717H152.715H152.712H152.71H152.708H152.706H152.704H152.702H152.7H152.698H152.696H152.694H152.691H152.689H152.687H152.685H152.683H152.681H152.679H152.677H152.675H152.673H152.67H152.668H152.666H152.664H152.662H152.66H152.658H152.656H152.654H152.652H152.649H152.647H152.645H152.643H152.641H152.639H152.637H152.635H152.633H152.631H152.628H152.626H152.624H152.622H152.62H152.618H152.616H152.614H152.612H152.61H152.608H152.605H152.603H152.601H152.599H152.597H152.595H152.593H152.591H152.589H152.587H152.584H152.582H152.58H152.578H152.576H152.574H152.572H152.57H152.568H152.566H152.563H152.561H152.559H152.557H152.555H152.553H152.551H152.549H152.547H152.545H152.542H152.54H152.538H152.536H152.534H152.532H152.53H152.528H152.526H152.524H152.521H152.519H152.517H152.515H152.513H152.511H152.509H152.507H152.505H152.503H152.5H152.498H152.496H152.494H152.492H152.49H152.488H152.486H152.484H152.482H152.479H152.477H152.475H152.473H152.471H152.469H152.467H152.465H152.463H152.461H152.459H152.456H152.454H152.452H152.45H152.448H152.446H152.444H152.442H152.44H152.438H152.435H152.433H152.431H152.429H152.427H152.425H152.423H152.421H152.419H152.417H152.414H152.412H152.41H152.408H152.406H152.404H152.402H152.4H152.398H152.396H152.393H152.391H152.389H152.387H152.385H152.383H152.381H152.379H152.377H152.375H152.372H152.37H152.368H152.366H152.364H152.362H152.36H152.358H152.356H152.354H152.351H152.349H152.347H152.345H152.343H152.341H152.339H152.337H152.335H152.333H152.331H152.328H152.326H152.324H152.322H152.32H152.318H152.316H152.314H152.312H152.31H152.307H152.305H152.303H152.301H152.299H152.297H152.295H152.293H152.291H152.289H152.286H152.284H152.282H152.28H152.278H152.276H152.274H152.272H152.27H152.268H152.265H152.263H152.261H152.259H152.257H152.255H152.253H152.251H152.249H152.247H152.244H152.242H152.24H152.238H152.236H152.234H152.232H152.23H152.228H152.226H152.223H152.221H152.219H152.217H152.215H152.213H152.211H152.209H152.207H152.205H152.202H152.2H152.198H152.196H152.194H152.192H152.19H152.188H152.186H152.184H152.182H152.179H152.177H152.175H152.173H152.171H152.169H152.167H152.165H152.163H152.161H152.158H152.156H152.154H152.152H152.15H152.148H152.146H152.144H152.142H152.14H152.137H152.135H152.133H152.131H152.129H152.127H152.125H152.123H152.121H152.119H152.116H152.114H152.112H152.11H152.108H152.106H152.104H152.102H152.1H152.098H152.095H152.093H152.091H152.089H152.087H152.085H152.083H152.081H152.079H152.077H152.074H152.072H152.07H152.068H152.066H152.064H152.062H152.06H152.058H152.056H152.053H152.051H152.049H152.047H152.045H152.043H152.041H152.039H152.037H152.035H152.033H152.03H152.028H152.026H152.024H152.022H152.02H152.018H152.016H152.014H152.012H152.009H152.007H152.005H152.003H152.001H151.999H151.997H151.995H151.993H151.991H151.988H151.986H151.984H151.982H151.98H151.908C145.641 119.016 139.444 116.575 134.718 111.859L134.714 111.856C124.866 102.08 124.958 86.2771 134.857 76.5913C139.687 71.8662 145.937 69.4748 152.251 69.3774H152.253H152.255H152.257H152.259H152.261H152.263H152.265H152.267H152.269H152.272H152.274H152.276H152.278H152.28H152.282H152.284H152.286H152.288H152.29H152.293H152.295H152.297H152.299H152.301H152.303H152.305H152.307H152.309H152.311H152.314H152.316H152.318H152.32H152.322H152.324H152.326H152.328H152.33H152.332H152.334H152.337H152.339H152.341H152.343H152.345H152.347H152.349H152.351H152.353H152.355H152.358H152.36H152.362H152.364H152.366H152.368H152.37H152.372H152.374H152.376H152.379H152.381H152.383H152.385H152.387H152.389H152.391H152.393H152.395H152.397H152.4H152.402H152.404H152.406H152.408H152.41H152.412H152.414H152.416H152.418H152.421H152.423H152.425H152.427H152.429H152.431H152.433H152.435H152.437H152.439H152.442H152.444H152.446H152.448H152.45H152.452H152.454H152.456H152.458H152.46H152.463H152.465H152.467H152.469H152.471H152.473H152.475H152.477H152.479H152.481H152.483H152.486H152.488H152.49H152.492H152.494H152.496H152.498H152.5H152.502H152.504H152.507H152.509H152.511H152.513H152.515H152.517H152.519H152.521H152.523H152.525H152.528H152.53H152.532H152.534H152.536H152.538H152.54H152.542H152.544H152.546H152.549H152.551H152.553H152.555H152.557H152.559H152.561H152.563H152.565H152.567H152.57H152.572H152.574H152.576H152.578H152.58H152.582H152.584H152.586H152.588H152.591H152.593H152.595H152.597H152.599H152.601H152.603H152.605H152.607H152.609H152.612H152.614H152.616H152.618H152.62H152.622H152.624H152.626H152.628H152.63H152.632H152.635H152.637H152.639H152.641H152.643H152.645H152.647H152.649H152.651H152.653H152.656H152.658H152.66H152.662H152.664H152.666H152.668H152.67H152.672H152.674H152.677H152.679H152.681H152.683H152.685H152.687H152.689H152.691H152.693H152.695H152.698H152.7H152.702H152.704H152.706H152.708H152.71H152.712H152.714H152.716H152.719H152.721H152.723H152.725H152.727H152.729H152.731H152.733H152.735H152.737H152.74H152.742H152.744H152.746H152.748H152.75H152.752H152.754H152.756H152.758H152.761H152.763H152.765H152.767H152.769H152.771H152.773H152.775H152.777H152.779H152.781H152.784H152.786H152.788H152.79H152.792H152.794H152.796H152.798H152.8H152.802H152.805H152.807H152.809H152.811H152.813H152.815H152.817H152.819H152.821H152.823H152.826H152.828H152.83H152.832H152.834H152.836H152.838H152.84H152.842H152.844H152.847H152.849H152.851H152.853H152.855H152.857H152.859H152.861H152.863H152.865H152.868H152.87H152.872H152.874H152.876H152.878H152.88H152.882H152.884H152.886H152.889H152.891H152.893H152.895H152.897H152.899H152.901H152.903H152.905H152.907H152.91H152.912H152.914H152.916H152.918H152.92H152.922H152.924H152.926H152.928H152.931H152.933H152.935H152.937H152.939H152.941H152.943H152.945H152.947H152.949H152.951H152.954H152.956H152.958H152.96H152.962H152.964H152.966H152.968H152.97H152.972H152.975H152.977H152.979H152.981H152.983H152.985H152.987H152.989H152.991H152.993H152.996H152.998H153H153.002H153.004H153.006H153.008H153.01H153.012H153.014H153.017H153.019H153.021H153.023H153.025H153.027H153.029H153.031H153.033H153.035H153.038H153.04H153.042H153.044H153.046H153.048H153.05H153.052H153.054H153.056H153.059H153.061H153.063H153.065H153.067H153.069H153.071H153.073H153.075H153.077H153.08H153.082H153.084H153.086H153.088H153.09H153.092H153.094H153.096H153.098H153.1H153.103H153.105H153.107H153.109H153.111H153.113H153.115H153.117H153.119H153.121H153.124H153.126H153.128H153.13H153.132H153.134H153.136H153.138H153.14H153.142H153.145H153.147H153.149H153.151H153.153H153.155H153.157H153.159H153.161H153.163H153.166H153.168H153.17H153.172H153.174H153.176H153.178H153.18H153.182H153.184H153.187H153.189H153.191H153.193H153.195H153.197H153.199H153.201H153.203H153.205H153.208H153.21H153.212H153.214H153.216H153.218H153.22H153.222H153.224H153.226H153.229H153.231H153.233H153.235H153.237H153.239H153.241H153.243H153.245H153.247H153.249H153.252H153.254H153.256H153.258H153.26H153.262H153.264H153.266H153.268H153.27H153.273H153.275H153.277H153.279H153.281H153.283H153.285H153.287H153.289H153.291H153.294H153.296H153.298H153.3H153.302H153.304H153.306H153.308H153.31L259.975 70.1356Z" stroke="url(#paint11_linear_222_2057)" stroke-width="4"/>
<path d="M260.046 250.74H260.044L-4.10781 248.971L-4.13552 248.971L-4.16323 248.971C-10.8666 249.112 -17.5967 246.671 -22.6633 241.619L-22.6665 241.615C-32.5141 231.84 -32.4219 216.037 -22.5233 206.351L-22.5232 206.351C-17.498 201.433 -10.8604 198.996 -4.26616 199.137L-4.25153 199.137L-4.2369 199.137L260.388 200.906H260.402H260.404H260.406H260.408H260.41H260.412H260.414H260.416H260.418H260.421H260.423H260.425H260.427H260.429H260.431H260.433H260.435H260.437H260.439H260.441H260.443H260.446H260.448H260.45H260.452H260.454H260.456H260.458H260.46H260.462H260.464H260.466H260.468H260.47H260.472H260.474H260.477H260.479H260.481H260.483H260.485H260.487H260.489H260.491H260.493H260.495H260.497H260.499H260.501H260.503H260.505H260.507H260.509H260.511H260.513H260.516H260.518H260.52H260.522H260.524H260.526H260.528H260.53H260.532H260.534H260.536H260.538H260.54H260.542H260.544H260.546H260.548H260.55H260.552H260.554H260.556H260.558H260.56H260.562H260.564H260.566H260.568H260.57H260.572H260.574H260.576H260.578H260.58H260.582H260.584H260.586H260.588H260.59H260.592H260.594H260.596H260.598H260.6H260.602H260.604H260.607H260.608H260.611H260.613H260.615H260.617H260.618H260.621H260.622H260.625H260.626H260.629H260.63H260.632H260.634H260.636H260.638H260.64H260.642H260.644H260.646H260.648H260.65H260.652H260.654H260.656H260.658H260.66H260.662H260.664H260.666H260.668H260.67H260.672H260.674H260.676H260.678H260.68H260.682H260.684H260.686H260.688H260.69H260.692H260.694H260.696H260.698H260.7H260.702H260.704H260.706H260.708H260.71H260.712H260.714H260.716H260.718H260.72H260.722H260.724H260.726H260.728H260.73H260.732H260.734H260.735H260.737H260.739H260.741H260.743H260.745H260.747H260.749H260.751H260.753H260.755H260.757H260.759H260.761H260.763H260.765H260.767H260.769H260.771H260.773H260.775H260.777H260.779H260.781H260.783H260.785H260.786H260.788H260.79H260.792H260.794H260.796H260.798H260.8H260.802H260.804H260.806H260.808H260.81H260.812H260.814H260.816H260.818H260.82H260.822H260.824H260.826H260.828H260.83H260.831H260.833H260.835H260.837H260.839H260.841H260.843H260.845H260.847H260.849H260.851H260.853H260.855H260.857H260.859H260.861H260.863H260.865H260.867H260.869H260.87H260.872H260.874H260.876H260.878H260.88H260.882H260.884H260.886H260.888H260.89H260.892H260.894H260.896H260.898H260.9H260.902H260.904H260.906H260.908H260.909H260.911H260.913H260.915H260.917H260.919H260.921H260.923H260.925H260.927H260.929H260.931H260.933H260.935H260.937H260.939H260.941H260.943H260.945H260.947H260.948H260.95H260.952H260.954H260.956H260.958H260.96H260.962H260.964H260.966H260.968H260.97H260.972H260.974H260.976H260.978H260.98H260.982H260.984H260.986H260.987H260.989H260.991H260.993H260.995H260.997H260.999H261.001H261.003H261.005H261.007H261.009H261.011H261.013H261.015H261.017H261.019H261.021H261.023H261.025H261.027H261.029H261.03H261.032H261.034H261.036H261.038H261.04H261.042H261.044H261.046H261.048H261.05H261.052H261.054H261.056H261.058H261.06H261.062H261.064H261.066H261.068H261.07H261.072H261.074H261.076H261.078H261.079H261.081H261.083H261.085H261.087H261.089H261.091H261.093H261.095H261.097H261.099H261.101H261.103H261.105H261.107H261.109H261.111H261.113H261.115H261.117H261.119H261.121H261.123H261.125H261.127H261.129H261.131H261.133H261.135H261.137H261.139H261.141H261.143H261.145H261.147H261.149H261.151H261.152H261.154H261.156H261.158H261.16H261.162H261.164H261.166H261.168H261.17H261.172H261.174H261.176H261.178H261.18H261.182H261.184H261.186H261.188H261.19H261.192H261.194H261.196H261.198H261.2H261.202H261.204H261.206H261.208H261.21H261.212H261.214H261.216H261.218H261.22H261.222H261.224H261.226H261.228H261.23H261.232H261.234H261.236H261.238H261.24H261.242H261.244H261.246H261.248H261.25H261.252H261.254H261.256H261.258H261.26H261.263H261.265H261.267H261.269H261.271H261.273H261.275H261.277H261.279H261.281H261.283H261.285H261.287H261.289H261.291H261.293H261.295H261.297H261.299H261.301H261.303H261.305H261.307H261.309H261.311H261.313H261.315H261.317H261.319H261.321H261.324H261.326H261.328H261.33H261.332H261.334H261.336H261.338H261.34H261.342H261.344H261.346H261.348H261.35H261.352H261.354H261.356H261.358H261.361H261.363H261.365H261.367H261.369H261.371H261.373H261.375H261.377H261.379H261.381H261.383H261.385H261.387H261.389H261.392H261.394H261.396H261.398H261.4H261.402H261.404H261.406H261.408H261.41H261.412H261.415H261.417H261.419H261.421H261.423H261.425H262.232C268.263 201.295 274.166 203.691 278.742 208.211C288.59 217.987 288.498 233.79 278.599 243.475L278.592 243.482C273.953 248.066 267.938 250.456 261.86 250.691L260.6 250.74H260.598H260.596H260.594H260.591H260.589H260.587H260.585H260.582H260.58H260.578H260.576H260.573H260.571H260.569H260.567H260.565H260.562H260.56H260.558H260.556H260.553H260.551H260.549H260.546H260.544H260.542H260.54H260.537H260.535H260.533H260.531H260.528H260.526H260.524H260.522H260.519H260.517H260.515H260.513H260.51H260.508H260.506H260.504H260.501H260.499H260.497H260.495H260.492H260.49H260.488H260.486H260.483H260.481H260.479H260.477H260.474H260.472H260.47H260.468H260.465H260.463H260.461H260.458H260.456H260.454H260.452H260.449H260.447H260.445H260.443H260.44H260.438H260.436H260.434H260.431H260.429H260.427H260.425H260.422H260.42H260.418H260.415H260.413H260.411H260.409H260.406H260.404H260.402H260.4H260.397H260.395H260.393H260.39H260.388H260.386H260.384H260.381H260.379H260.377H260.375H260.372H260.37H260.368H260.365H260.363H260.361H260.359H260.356H260.354H260.352H260.349H260.347H260.345H260.343H260.34H260.338H260.336H260.333H260.331H260.329H260.327H260.324H260.322H260.32H260.317H260.315H260.313H260.311H260.308H260.306H260.304H260.301H260.299H260.297H260.294H260.292H260.29H260.288H260.285H260.283H260.281H260.278H260.276H260.274H260.271H260.269H260.267H260.264H260.262H260.26H260.258H260.255H260.253H260.251H260.248H260.246H260.244H260.241H260.239H260.237H260.234H260.232H260.23H260.227H260.225H260.223H260.22H260.218H260.216H260.214H260.211H260.209H260.207H260.204H260.202H260.2H260.197H260.195H260.193H260.19H260.188H260.186H260.183H260.181H260.179H260.176H260.174H260.172H260.169H260.167H260.164H260.162H260.16H260.157H260.155H260.153H260.15H260.148H260.146H260.143H260.141H260.139H260.136H260.134H260.132H260.129H260.127H260.124H260.122H260.12H260.117H260.115H260.113H260.11H260.108H260.106H260.103H260.101H260.098H260.096H260.094H260.091H260.089H260.087H260.084H260.082H260.079H260.077H260.075H260.072H260.07H260.068H260.065H260.063H260.06H260.058H260.056H260.053H260.051H260.048H260.046Z" stroke="url(#paint12_linear_222_2057)" stroke-width="4"/>
</g>
<defs>
<linearGradient id="paint0_linear_222_2057" x1="357.773" y1="147.09" x2="503.184" y2="147.09" gradientUnits="userSpaceOnUse">
<stop stop-color="#57EFB8"/>
<stop offset="0.0572917" stop-color="#31D9BA"/>
<stop offset="0.473958" stop-color="#01BCBD"/>
<stop offset="1" stop-color="#00A1D4"/>
</linearGradient>
<linearGradient id="paint1_linear_222_2057" x1="533.371" y1="174.125" x2="655.451" y2="174.125" gradientUnits="userSpaceOnUse">
<stop stop-color="#57EFB8"/>
<stop offset="0.0572917" stop-color="#31D9BA"/>
<stop offset="0.473958" stop-color="#01BCBD"/>
<stop offset="1" stop-color="#00A1D4"/>
</linearGradient>
<linearGradient id="paint2_linear_222_2057" x1="679.844" y1="174.562" x2="744.414" y2="174.562" gradientUnits="userSpaceOnUse">
<stop stop-color="#57EFB8"/>
<stop offset="0.0572917" stop-color="#31D9BA"/>
<stop offset="0.473958" stop-color="#01BCBD"/>
<stop offset="1" stop-color="#00A1D4"/>
</linearGradient>
<linearGradient id="paint3_linear_222_2057" x1="785.096" y1="171.788" x2="970.415" y2="171.788" gradientUnits="userSpaceOnUse">
<stop stop-color="#57EFB8"/>
<stop offset="0.0572917" stop-color="#31D9BA"/>
<stop offset="0.473958" stop-color="#01BCBD"/>
<stop offset="1" stop-color="#00A1D4"/>
</linearGradient>
<linearGradient id="paint4_linear_222_2057" x1="1009.01" y1="174.562" x2="1073.58" y2="174.562" gradientUnits="userSpaceOnUse">
<stop stop-color="#57EFB8"/>
<stop offset="0.0572917" stop-color="#31D9BA"/>
<stop offset="0.473958" stop-color="#01BCBD"/>
<stop offset="1" stop-color="#00A1D4"/>
</linearGradient>
<linearGradient id="paint5_linear_222_2057" x1="1095.29" y1="147.09" x2="1240.7" y2="147.09" gradientUnits="userSpaceOnUse">
<stop stop-color="#57EFB8"/>
<stop offset="0.0572917" stop-color="#31D9BA"/>
<stop offset="0.473958" stop-color="#01BCBD"/>
<stop offset="1" stop-color="#00A1D4"/>
</linearGradient>
<linearGradient id="paint6_linear_222_2057" x1="681.718" y1="29.6063" x2="742.605" y2="29.6063" gradientUnits="userSpaceOnUse">
<stop stop-color="#57EFB8"/>
<stop offset="0.0572917" stop-color="#31D9BA"/>
<stop offset="0.473958" stop-color="#01BCBD"/>
<stop offset="1" stop-color="#00A1D4"/>
</linearGradient>
<linearGradient id="paint7_linear_222_2057" x1="1011.88" y1="29.6063" x2="1072.77" y2="29.6063" gradientUnits="userSpaceOnUse">
<stop stop-color="#57EFB8"/>
<stop offset="0.0572917" stop-color="#31D9BA"/>
<stop offset="0.473958" stop-color="#01BCBD"/>
<stop offset="1" stop-color="#00A1D4"/>
</linearGradient>
<linearGradient id="paint8_linear_222_2057" x1="1185.61" y1="315.454" x2="1246.49" y2="315.454" gradientUnits="userSpaceOnUse">
<stop stop-color="#57EFB8"/>
<stop offset="0.0572917" stop-color="#31D9BA"/>
<stop offset="0.473958" stop-color="#01BCBD"/>
<stop offset="1" stop-color="#00A1D4"/>
</linearGradient>
<linearGradient id="paint9_linear_222_2057" x1="1247.17" y1="212.325" x2="1472.04" y2="212.325" gradientUnits="userSpaceOnUse">
<stop stop-color="#57EFB8"/>
<stop offset="0.0572917" stop-color="#31D9BA"/>
<stop offset="0.473958" stop-color="#01BCBD"/>
<stop offset="1" stop-color="#00A1D4"/>
</linearGradient>
<linearGradient id="paint10_linear_222_2057" x1="34.9395" y1="159.658" x2="288.143" y2="159.658" gradientUnits="userSpaceOnUse">
<stop stop-color="#57EFB8"/>
<stop offset="0.0572917" stop-color="#31D9BA"/>
<stop offset="0.473958" stop-color="#01BCBD"/>
<stop offset="1" stop-color="#00A1D4"/>
</linearGradient>
<linearGradient id="paint11_linear_222_2057" x1="125.38" y1="94.2484" x2="288.124" y2="94.2484" gradientUnits="userSpaceOnUse">
<stop stop-color="#57EFB8"/>
<stop offset="0.0572917" stop-color="#31D9BA"/>
<stop offset="0.473958" stop-color="#01BCBD"/>
<stop offset="1" stop-color="#00A1D4"/>
</linearGradient>
<linearGradient id="paint12_linear_222_2057" x1="-32" y1="224.501" x2="288.076" y2="224.501" gradientUnits="userSpaceOnUse">
<stop stop-color="#57EFB8"/>
<stop offset="0.0572917" stop-color="#31D9BA"/>
<stop offset="0.473958" stop-color="#01BCBD"/>
<stop offset="1" stop-color="#00A1D4"/>
</linearGradient>
</defs>
</svg>
