<svg width="58" height="64" viewBox="0 0 58 64" fill="none" xmlns="http://www.w3.org/2000/svg">
<path d="M42.1013 37.3158C39.8641 40.2481 37.1426 42.4986 33.8875 44.1756C34.0432 44.394 34.1534 44.563 34.2787 44.7225C38.0049 49.5122 41.731 54.3038 45.4571 59.0915C47.1759 61.2983 49.5441 61.9991 51.9902 61.0268C54.8959 59.874 56.1323 56.239 54.5199 53.5574C54.2198 53.0579 53.859 52.5964 53.5228 52.1197C52.9949 51.3696 53.05 50.6422 53.671 50.1864C54.2635 49.7534 54.9643 49.9129 55.5265 50.5871C56.7875 52.0969 57.6554 53.7777 57.7447 55.7794C57.9004 59.2814 55.9367 62.2232 52.6151 63.5033C49.6239 64.6579 46.0364 63.7634 43.9416 61.1958C41.6493 58.3831 39.4615 55.4869 37.23 52.6249C35.4353 50.3231 33.6349 48.0233 31.8592 45.7063C31.5743 45.3341 31.3445 45.2429 30.883 45.3967C26.458 46.8781 21.9627 47.0984 17.4674 45.8411C9.66188 43.659 4.25309 38.7402 1.46703 31.1341C-0.920205 24.6162 -0.371349 18.178 2.94837 12.1046C6.2548 6.05385 11.3711 2.20806 18.0846 0.536807C19.7122 0.132287 21.3645 0.0240343 23.0414 0.00314362C25.3508 -0.0272428 27.6165 0.156975 29.8404 0.804587C33.7868 1.95358 37.2148 3.98187 40.0882 6.91417C43.1953 10.0839 45.2805 13.8423 46.2225 18.1837C47.4437 23.8128 46.7448 29.2083 44.0005 34.2962C43.6776 34.8944 43.6757 35.2628 44.1182 35.8098C45.8617 37.9653 47.5405 40.1741 49.2441 42.3638C49.3466 42.4948 49.453 42.624 49.5441 42.7645C49.9809 43.4425 49.8727 44.1832 49.2839 44.5934C48.7066 44.996 48.0115 44.8783 47.5196 44.2496C45.8731 42.1492 44.2417 40.0373 42.6027 37.9293C42.4603 37.7526 42.314 37.5779 42.1013 37.3158ZM23.4156 2.41697C11.9086 2.45495 2.54955 11.8691 2.57994 23.3722C2.61032 34.7881 12.0149 44.1509 23.4156 44.111C34.9624 44.0711 44.2702 34.7691 44.2683 23.2716C44.2664 11.7912 34.8561 2.37899 23.4156 2.41697Z" fill="url(#paint0_linear_222_2121)"/>
<path d="M52.7861 47.689C52.7956 48.3898 52.222 48.9671 51.5232 48.9614C50.8395 48.9557 50.2545 48.3195 50.2583 47.5883C50.2621 46.9312 50.8395 46.3539 51.4985 46.3463C52.1879 46.3387 52.7766 46.9521 52.7861 47.689Z" fill="url(#paint1_linear_222_2121)"/>
<path d="M40.343 24.316C40.3373 31.2156 34.5658 38.2197 26.6862 39.7599C17.5892 41.5375 8.71067 35.6197 6.88938 26.5038C6.05185 22.3142 6.73365 18.3355 8.88159 14.6265C9.36398 13.7927 10.1521 13.5629 10.8092 14.0415C11.4094 14.4764 11.4246 15.0804 11.0504 15.9426C10.456 17.31 9.78559 18.6774 9.43615 20.115C7.79148 26.8703 11.7569 34.1783 18.2805 36.5826C26.143 39.4826 34.4385 35.5191 37.1201 27.5806C39.1617 21.5375 36.5884 14.4138 31.1568 11.075C27.2255 8.65932 23.0683 8.17504 18.6869 9.63169C18.5293 9.68487 18.3717 9.73994 18.2102 9.77792C17.4525 9.94885 16.784 9.6127 16.6017 8.97078C16.4079 8.28519 16.7289 7.66987 17.4696 7.39069C20.1132 6.39363 22.8461 6.05179 25.6435 6.44681C30.494 7.1324 34.3682 9.48356 37.2265 13.4623C39.3079 16.3604 40.2898 19.6307 40.343 24.316Z" fill="url(#paint2_linear_222_2121)"/>
<path d="M23.3321 14.9915C25.7782 14.9971 27.8692 15.9581 29.7608 17.4167C31.5612 18.805 33.0311 20.499 34.2769 22.3944C34.5903 22.871 34.6815 23.3724 34.3624 23.8605C32.5202 26.6751 30.3096 29.1098 27.1912 30.5455C23.9456 32.0402 20.8537 31.554 17.9309 29.6643C15.6538 28.1925 13.8857 26.2079 12.4063 23.9536C12.1043 23.494 12.0549 22.9964 12.355 22.5387C14.2257 19.6919 16.4572 17.2021 19.6535 15.8271C20.7987 15.3352 21.9571 14.9212 23.3321 14.9915ZM14.9474 23.2034C16.423 25.226 18.0715 26.9694 20.2821 28.0994C22.337 29.1496 24.3919 29.1629 26.4524 28.107C28.5643 27.0245 30.1615 25.3741 31.546 23.4921C31.6409 23.3629 31.6466 23.0496 31.5555 22.9242C30.4388 21.3745 29.1416 19.9957 27.5463 18.9284C25.2731 17.4072 22.8839 16.9799 20.3486 18.2542C18.0943 19.3899 16.4135 21.158 14.9474 23.2034Z" fill="url(#paint3_linear_222_2121)"/>
<path d="M13.4111 12.4273C12.7084 12.4311 12.1253 11.8309 12.1139 11.0922C12.1025 10.4426 12.6761 9.84821 13.337 9.82352C14.0302 9.79693 14.674 10.4673 14.6645 11.2042C14.6588 11.867 14.0891 12.4216 13.4111 12.4273Z" fill="url(#paint4_linear_222_2121)"/>
<path d="M23.2122 19.126C25.4076 18.995 27.2954 20.7536 27.4454 23.0687C27.586 25.2223 25.7514 27.1689 23.4724 27.2886C21.3188 27.4006 19.4443 25.642 19.2867 23.3592C19.1328 21.1733 20.9028 19.2647 23.2122 19.126ZM21.8011 23.2168C21.8087 24.0429 22.538 24.7741 23.3565 24.7741C24.1618 24.7722 24.9158 24.0258 24.9252 23.2187C24.9347 22.3717 24.1865 21.6367 23.3243 21.65C22.4867 21.6614 21.7935 22.3736 21.8011 23.2168Z" fill="url(#paint5_linear_222_2121)"/>
<defs>
<linearGradient id="paint0_linear_222_2121" x1="1.82947e-07" y1="31.5001" x2="57.7533" y2="31.5001" gradientUnits="userSpaceOnUse">
<stop stop-color="#57EFB8"/>
<stop offset="0.0572917" stop-color="#31D9BA"/>
<stop offset="0.473958" stop-color="#01BCBD"/>
<stop offset="1" stop-color="#00A1D4"/>
</linearGradient>
<linearGradient id="paint1_linear_222_2121" x1="50.2583" y1="47.6334" x2="52.7862" y2="47.6334" gradientUnits="userSpaceOnUse">
<stop stop-color="#57EFB8"/>
<stop offset="0.0572917" stop-color="#31D9BA"/>
<stop offset="0.473958" stop-color="#01BCBD"/>
<stop offset="1" stop-color="#00A1D4"/>
</linearGradient>
<linearGradient id="paint2_linear_222_2121" x1="6.54199" y1="22.9169" x2="40.343" y2="22.9169" gradientUnits="userSpaceOnUse">
<stop stop-color="#57EFB8"/>
<stop offset="0.0572917" stop-color="#31D9BA"/>
<stop offset="0.473958" stop-color="#01BCBD"/>
<stop offset="1" stop-color="#00A1D4"/>
</linearGradient>
<linearGradient id="paint3_linear_222_2121" x1="12.1533" y1="23.076" x2="34.5614" y2="23.076" gradientUnits="userSpaceOnUse">
<stop stop-color="#57EFB8"/>
<stop offset="0.0572917" stop-color="#31D9BA"/>
<stop offset="0.473958" stop-color="#01BCBD"/>
<stop offset="1" stop-color="#00A1D4"/>
</linearGradient>
<linearGradient id="paint4_linear_222_2121" x1="12.1138" y1="11.1047" x2="14.6646" y2="11.1047" gradientUnits="userSpaceOnUse">
<stop stop-color="#57EFB8"/>
<stop offset="0.0572917" stop-color="#31D9BA"/>
<stop offset="0.473958" stop-color="#01BCBD"/>
<stop offset="1" stop-color="#00A1D4"/>
</linearGradient>
<linearGradient id="paint5_linear_222_2121" x1="19.2773" y1="23.1425" x2="27.453" y2="23.1425" gradientUnits="userSpaceOnUse">
<stop stop-color="#57EFB8"/>
<stop offset="0.0572917" stop-color="#31D9BA"/>
<stop offset="0.473958" stop-color="#01BCBD"/>
<stop offset="1" stop-color="#00A1D4"/>
</linearGradient>
</defs>
</svg>
