<svg width="64" height="64" viewBox="0 0 64 64" fill="none" xmlns="http://www.w3.org/2000/svg">
<path d="M30.9571 33.9866C30.9571 37.0523 30.9486 40.1181 30.9677 43.1838C30.9698 43.6066 30.8764 43.7383 30.4302 43.7362C28.8262 43.7255 28.8262 43.7447 28.8262 42.1279C28.8262 36.8186 28.8177 31.5072 28.8389 26.198C28.841 25.7051 28.7327 25.5712 28.227 25.5797C26.6931 25.6116 26.6931 25.5861 26.6931 27.1264C26.6931 31.7473 26.6846 36.3682 26.7059 40.9891C26.708 41.4884 26.589 41.6116 26.0919 41.6031C24.5622 41.5734 24.5601 41.5967 24.5601 40.0522C24.5601 35.0085 24.5601 29.9648 24.5601 24.9233C24.5601 23.7887 24.8872 23.4616 26.0239 23.4594C27.2243 23.4594 28.4225 23.4573 29.6229 23.4594C30.5789 23.4616 30.955 23.8334 30.9571 24.7852C30.9592 27.8551 30.9571 30.9209 30.9571 33.9866Z" fill="url(#paint0_linear_222_2113)"/>
<path d="M50.155 25.9234C50.155 23.4355 50.1528 20.9477 50.155 18.4577C50.155 17.4145 50.5076 17.064 51.5529 17.064C52.7979 17.0619 54.0408 17.0576 55.2857 17.0661C56.1526 17.0704 56.5499 17.4613 56.5499 18.326C56.5541 23.4355 56.5477 28.5451 56.5605 33.6567C56.5605 34.0264 56.4713 34.1348 56.0888 34.139C54.4189 34.1581 54.4189 34.173 54.4189 32.5307C54.4189 28.288 54.4104 24.0431 54.4317 19.8004C54.4338 19.3054 54.3212 19.1737 53.8198 19.1843C52.288 19.2162 52.2859 19.1907 52.2859 20.7331C52.2859 24.9992 52.2753 29.2653 52.2986 33.5293C52.3007 34.0328 52.1775 34.1518 51.6825 34.1411C50.1528 34.1114 50.1528 34.1348 50.1528 32.5902C50.155 30.3679 50.155 28.1457 50.155 25.9234Z" fill="url(#paint1_linear_222_2113)"/>
<path d="M33.0903 36.0537C33.0903 33.7422 33.0882 31.4328 33.0903 29.1213C33.0903 28.0802 33.443 27.7297 34.4904 27.7276C35.7354 27.7254 36.9782 27.7212 38.2232 27.7297C39.09 27.7339 39.4852 28.1249 39.4873 28.9917C39.4916 33.7464 39.4852 38.5012 39.4979 43.2559C39.4979 43.6277 39.4045 43.7318 39.0242 43.7361C37.3564 43.7552 37.3564 43.7679 37.3564 42.1257C37.3564 38.2377 37.3458 34.3498 37.3691 30.4619C37.3713 29.9626 37.2523 29.8394 36.7552 29.8479C35.2255 29.8776 35.2233 29.8542 35.2233 31.3967C35.2233 35.3058 35.2127 39.2171 35.2361 43.1263C35.2382 43.632 35.1086 43.7446 34.6179 43.7361C33.0903 43.7063 33.0903 43.7297 33.0903 42.183C33.0903 40.1413 33.0903 38.0975 33.0903 36.0537Z" fill="url(#paint2_linear_222_2113)"/>
<path d="M16.0279 33.3869C16.0279 31.5874 16.0258 29.7879 16.03 27.9884C16.0321 27.0366 16.406 26.6648 17.3621 26.6627C18.6283 26.6585 19.8946 26.6563 21.1608 26.6627C22.0276 26.667 22.4228 27.0579 22.4249 27.9247C22.4291 31.6129 22.4206 35.3011 22.4355 38.9894C22.4376 39.3612 22.342 39.4653 21.9617 39.4695C20.294 39.4886 20.294 39.5014 20.294 37.8591C20.294 35.0143 20.2834 32.1717 20.3046 29.3269C20.3067 28.8914 20.192 28.7788 19.7586 28.783C18.1609 28.7936 18.1609 28.7766 18.1609 30.3977C18.1609 33.2425 18.1503 36.0851 18.1715 38.9299C18.1758 39.3718 18.0504 39.4738 17.6234 39.4716C16.0279 39.4631 16.0279 39.478 16.0279 37.8549C16.0279 36.3634 16.0279 34.8762 16.0279 33.3869Z" fill="url(#paint3_linear_222_2113)"/>
<path d="M41.6226 30.192C41.6226 28.3925 41.6205 26.593 41.6247 24.7935C41.6269 23.8396 42.0008 23.4678 42.9547 23.4657C44.2209 23.4614 45.4872 23.4593 46.7534 23.4657C47.6223 23.4699 48.0175 23.8587 48.0196 24.7234C48.0239 28.0568 48.0154 31.3881 48.0303 34.7216C48.0324 35.0891 47.9453 35.2017 47.5607 35.206C45.8887 35.2251 45.8887 35.24 45.8887 33.5998C45.8887 31.112 45.8781 28.6241 45.8993 26.1341C45.9036 25.705 45.7973 25.5839 45.3576 25.586C43.7557 25.5966 43.7557 25.5775 43.7557 27.1985C43.7557 30.0433 43.745 32.886 43.7663 35.7307C43.7684 36.1663 43.6537 36.2789 43.2203 36.2746C41.6226 36.264 41.6226 36.281 41.6226 34.66C41.6226 33.1685 41.6226 31.6792 41.6226 30.192Z" fill="url(#paint4_linear_222_2113)"/>
<path d="M63.8283 41.4349C63.6817 38.5094 60.7775 36.7248 58.0729 37.872C57.8647 37.9612 57.6863 38.1631 57.4589 37.8423C55.9314 35.6837 52.3643 35.5329 50.6519 38.1036C50.4819 38.3585 50.3587 38.4456 50.0294 38.2544C47.4225 36.7439 44.5969 37.6681 43.3349 40.4236C42.5786 42.0744 41.8201 43.723 41.1063 45.3908C40.8683 45.9474 40.6601 46.3022 39.976 45.9921C39.5702 45.8072 39.1049 45.8582 38.6588 45.8582C35.3275 45.8603 31.9919 45.7584 28.6649 45.8986C26.8463 45.9772 25.5057 45.5501 24.2798 44.1352C22.7331 42.3484 20.6043 41.5687 18.2269 41.5305C16.7121 41.5071 15.2972 41.9002 13.895 42.6353C13.895 42.3421 13.895 42.1275 13.895 41.9129C13.8886 40.8761 13.5381 40.5298 12.4864 40.5277C11.7747 40.5256 11.0608 40.4788 10.3555 40.5426C9.72874 40.5978 9.58852 40.3747 9.61401 39.7862C9.65863 38.7495 9.26983 38.3968 8.22455 38.3968C6.02564 38.3947 3.82673 38.3968 1.62782 38.3968C0.00890758 38.3968 0.0280249 38.3968 0.0174021 39.9987C0.0152775 40.4385 0.136381 40.5447 0.56554 40.5405C2.69859 40.5171 4.82951 40.5426 6.96256 40.5192C7.40235 40.515 7.50434 40.6382 7.50434 41.0673C7.48946 47.8192 7.48946 54.571 7.50434 61.3228C7.50434 61.7541 7.40235 61.8773 6.96256 61.8688C5.20768 61.8412 3.45281 61.8582 1.69793 61.8582C-0.0548254 61.8582 -0.0442079 61.8582 0.0195287 63.5897C0.032276 63.9063 0.106645 63.9998 0.427452 63.9976C3.11501 63.9849 5.80256 63.9976 8.49012 63.9849C9.19122 63.9828 9.59914 63.5621 9.62251 62.8631C9.6395 62.3299 9.648 61.7966 9.61825 61.2655C9.59701 60.8958 9.70112 60.7683 10.0878 60.7832C10.9312 60.8129 11.7747 60.7981 12.6202 60.7917C13.4892 60.7853 13.8822 60.3965 13.8907 59.5361C13.8992 58.716 13.8929 57.8959 13.8929 56.9399C14.1308 57.1417 14.2668 57.2522 14.3964 57.3669C24.5964 66.3389 40.1332 66.2199 50.0867 56.9441C54.4229 52.9032 58.5127 48.5989 62.7044 44.405C63.5139 43.5913 63.8857 42.5673 63.8283 41.4349ZM11.2287 58.6671C9.62888 58.6565 9.62889 58.6756 9.62889 57.0546C9.62889 52.4571 9.63739 47.8574 9.61614 43.2599C9.61402 42.7649 9.72661 42.6331 10.228 42.6438C11.7598 42.6756 11.7619 42.6501 11.7619 44.1904C11.7619 46.3447 11.7619 48.499 11.7619 50.6554C11.7619 53.1433 11.7513 55.6311 11.7726 58.119C11.7768 58.5524 11.6663 58.6693 11.2287 58.6671ZM50.1037 42.4058C50.9111 41.3223 51.6993 40.2218 52.5342 39.1595C53.3947 38.0653 54.9265 38.059 55.7508 39.1C55.9675 39.3762 56.0206 39.5674 55.7189 39.8648C52.8147 42.733 49.9359 45.6266 47.0338 48.4948C46.1542 49.3637 45.1535 50.0839 43.9893 50.6066C46.0267 47.8744 48.0642 45.1401 50.1037 42.4058ZM42.6466 47.1138C43.0077 46.4063 43.3052 45.6649 43.6302 44.9383C44.2017 43.6678 44.7584 42.3909 45.3532 41.129C45.9778 39.8011 47.4778 39.2785 48.7015 39.9328C48.8311 40.0029 48.9862 40.0476 49.0563 40.2196C48.9586 40.3577 48.8566 40.5043 48.7525 40.6446C47.004 42.9922 45.2555 45.3398 43.4964 47.679C43.3753 47.8404 43.2627 48.259 43.0268 48.0507C42.8016 47.8574 42.3937 47.611 42.6466 47.1138ZM61.2428 42.835C61.1068 43.0092 60.9389 43.1579 60.7817 43.3151C57.153 46.9439 53.503 50.5513 49.9019 54.2077C46.0288 58.1424 41.4207 60.6918 35.9606 61.5247C28.5905 62.6485 21.9789 60.8172 16.1895 56.0943C15.3801 55.4336 14.3879 54.8153 13.9906 53.9145C13.6379 53.1135 13.8971 52.0385 13.895 51.0846C13.8907 49.3085 13.9056 47.5302 13.8844 45.7541C13.8801 45.3823 13.9991 45.1529 14.2944 44.9319C16.6994 43.1303 20.1582 43.2493 22.4059 45.257C23.1665 45.9368 23.8825 46.6719 24.5879 47.4091C24.9851 47.8234 25.4164 48.004 25.9964 47.9998C30.305 47.9806 34.6157 47.9849 38.9243 47.9934C40.2394 47.9955 41.2677 48.8411 41.5588 50.1073C41.8201 51.2354 41.238 52.4741 40.1799 53.0201C39.7168 53.2601 39.2196 53.3281 38.6991 53.326C34.5456 53.3175 30.39 53.3303 26.2365 53.3111C25.7691 53.309 25.5928 53.3791 25.6055 53.9081C25.6416 55.4548 25.6119 55.4548 27.1416 55.4548C28.9857 55.4548 30.8298 55.4548 32.6739 55.4548C34.6965 55.4548 36.7169 55.4463 38.7395 55.4591C40.0886 55.4676 41.2698 55.0596 42.2514 54.1248C42.4171 53.9676 42.6019 53.8571 42.8059 53.77C45.2852 52.7078 47.4332 51.1696 49.3325 49.2596C52.2772 46.298 55.2409 43.3555 58.1855 40.3939C58.6657 39.9116 59.2011 39.5972 59.8937 39.6588C60.6628 39.7267 61.2343 40.1155 61.5338 40.8358C61.8334 41.5517 61.7229 42.2273 61.2428 42.835Z" fill="url(#paint5_linear_222_2113)"/>
<path d="M56.3986 0.00402261C52.2451 -0.00235105 48.0916 -0.000226496 43.9381 0.00402261C43.101 0.00402261 42.6974 0.397065 42.691 1.21077C42.6804 2.54286 42.6804 3.87708 42.691 5.20918C42.6974 5.98676 43.1074 6.38618 43.8913 6.3968C44.7093 6.40742 45.5294 6.39892 46.4727 6.39892C46.3388 6.55402 46.2878 6.622 46.2284 6.67937C43.0415 9.86832 39.8462 13.0509 36.6742 16.2547C36.3407 16.5904 36.2175 16.4651 35.9753 16.1952C33.2346 13.1338 30.4854 10.0829 27.7363 7.02992C26.999 6.20984 26.4721 6.17797 25.7264 6.92157C21.609 11.0347 17.4959 15.15 13.3828 19.2652C12.6094 20.0407 12.6179 20.4932 13.4083 21.2857C14.2538 22.1355 15.1037 22.9832 15.9514 23.8309C16.901 24.7806 17.2771 24.7848 18.2098 23.8542C20.8803 21.1858 23.5573 18.5216 26.2108 15.8362C26.5508 15.492 26.708 15.4538 27.0543 15.8447C29.7376 18.8658 32.4506 21.8614 35.1531 24.8677C36.0263 25.8407 36.4703 25.8556 37.3923 24.9335C41.805 20.5208 46.2199 16.1081 50.6304 11.6912C50.794 11.5276 50.9194 11.33 51.0617 11.1473C51.2147 12.0757 51.2062 12.8894 51.2168 13.7031C51.2253 14.5253 51.6226 14.9248 52.4469 14.929C53.7578 14.9375 55.0686 14.9375 56.3773 14.929C57.2017 14.9226 57.6075 14.5253 57.6096 13.7031C57.616 9.54964 57.616 5.39614 57.6096 1.24264C57.616 0.414062 57.2165 0.00402261 56.3986 0.00402261ZM55.485 7.53344C55.485 9.13322 55.4723 10.733 55.4935 12.3328C55.4978 12.711 55.3915 12.8066 55.0176 12.8108C53.352 12.8299 53.352 12.8427 53.352 11.1983C53.352 10.4207 53.3371 9.64312 53.3562 8.86553C53.3711 8.28978 53.2628 7.799 52.6743 7.55256C52.0709 7.29973 51.6693 7.63541 51.2742 8.03058C47.5541 11.757 43.8297 15.4793 40.1075 19.2015C38.9921 20.3169 37.864 21.4195 36.7699 22.5561C36.4448 22.8939 36.2833 22.9619 35.9264 22.5583C33.2282 19.518 30.4982 16.5075 27.7809 13.4843C26.9672 12.5792 26.487 12.5601 25.6329 13.4142C22.9305 16.1145 20.2238 18.8127 17.5363 21.5279C17.2006 21.8657 16.9988 21.957 16.6652 21.5449C16.3062 21.0987 15.5817 20.7248 15.5583 20.2892C15.5307 19.7836 16.27 19.4097 16.6865 18.989C19.869 15.7937 23.0665 12.6132 26.2406 9.41154C26.5741 9.07586 26.7228 9.08011 27.0373 9.43279C29.7418 12.4666 32.4676 15.4835 35.1849 18.5046C36.0241 19.4373 36.4809 19.45 37.3796 18.5535C41.4481 14.485 45.5145 10.4143 49.5873 6.35006C50.0016 5.93577 50.3372 5.51299 50.0377 4.88837C49.821 4.43584 49.4428 4.26587 48.9542 4.27012C47.7325 4.2765 46.5109 4.25738 45.2893 4.28075C44.9154 4.28712 44.8134 4.18514 44.8092 3.80697C44.79 2.1392 44.7773 2.1392 46.4196 2.1392C49.2622 2.1392 52.107 2.14982 54.9496 2.12857C55.383 2.12645 55.502 2.23693 55.4957 2.67246C55.4702 4.28925 55.485 5.91028 55.485 7.53344Z" fill="url(#paint6_linear_222_2113)"/>
<defs>
<linearGradient id="paint0_linear_222_2113" x1="24.5601" y1="33.439" x2="30.9678" y2="33.439" gradientUnits="userSpaceOnUse">
<stop stop-color="#57EFB8"/>
<stop offset="0.0572917" stop-color="#31D9BA"/>
<stop offset="0.473958" stop-color="#01BCBD"/>
<stop offset="1" stop-color="#00A1D4"/>
</linearGradient>
<linearGradient id="paint1_linear_222_2113" x1="50.1528" y1="25.4686" x2="56.5605" y2="25.4686" gradientUnits="userSpaceOnUse">
<stop stop-color="#57EFB8"/>
<stop offset="0.0572917" stop-color="#31D9BA"/>
<stop offset="0.473958" stop-color="#01BCBD"/>
<stop offset="1" stop-color="#00A1D4"/>
</linearGradient>
<linearGradient id="paint2_linear_222_2113" x1="33.0894" y1="35.6072" x2="39.4979" y2="35.6072" gradientUnits="userSpaceOnUse">
<stop stop-color="#57EFB8"/>
<stop offset="0.0572917" stop-color="#31D9BA"/>
<stop offset="0.473958" stop-color="#01BCBD"/>
<stop offset="1" stop-color="#00A1D4"/>
</linearGradient>
<linearGradient id="paint3_linear_222_2113" x1="16.0273" y1="32.966" x2="22.4356" y2="32.966" gradientUnits="userSpaceOnUse">
<stop stop-color="#57EFB8"/>
<stop offset="0.0572917" stop-color="#31D9BA"/>
<stop offset="0.473958" stop-color="#01BCBD"/>
<stop offset="1" stop-color="#00A1D4"/>
</linearGradient>
<linearGradient id="paint4_linear_222_2113" x1="41.6221" y1="29.7681" x2="48.0303" y2="29.7681" gradientUnits="userSpaceOnUse">
<stop stop-color="#57EFB8"/>
<stop offset="0.0572917" stop-color="#31D9BA"/>
<stop offset="0.473958" stop-color="#01BCBD"/>
<stop offset="1" stop-color="#00A1D4"/>
</linearGradient>
<linearGradient id="paint5_linear_222_2113" x1="2.02209e-07" y1="49.8824" x2="63.8341" y2="49.8824" gradientUnits="userSpaceOnUse">
<stop stop-color="#57EFB8"/>
<stop offset="0.0572917" stop-color="#31D9BA"/>
<stop offset="0.473958" stop-color="#01BCBD"/>
<stop offset="1" stop-color="#00A1D4"/>
</linearGradient>
<linearGradient id="paint6_linear_222_2113" x1="12.8091" y1="12.6057" x2="57.6144" y2="12.6057" gradientUnits="userSpaceOnUse">
<stop stop-color="#57EFB8"/>
<stop offset="0.0572917" stop-color="#31D9BA"/>
<stop offset="0.473958" stop-color="#01BCBD"/>
<stop offset="1" stop-color="#00A1D4"/>
</linearGradient>
</defs>
</svg>
