<svg width="64" height="65" viewBox="0 0 64 65" fill="none" xmlns="http://www.w3.org/2000/svg">
<path d="M0 32.5005C0.167104 32.9997 0.23931 33.5011 0 34.0003C0 33.5011 0 32.9997 0 32.5005Z" fill="url(#paint0_linear_222_2105)"/>
<path d="M30.0039 64.0044C30.5032 63.7651 31.0045 63.8373 31.5037 64.0044C31.0045 64.0044 30.5032 64.0044 30.0039 64.0044Z" fill="url(#paint1_linear_222_2105)"/>
<path d="M0 29.9995C0.249625 30.4575 0.162978 30.9155 0 31.3756C0 30.9155 0 30.4575 0 29.9995Z" fill="url(#paint2_linear_222_2105)"/>
<path d="M32.5054 64.0043C32.9634 63.8392 33.4214 63.7588 33.8814 64.0043C33.4214 64.0043 32.9634 64.0043 32.5054 64.0043Z" fill="url(#paint3_linear_222_2105)"/>
<path d="M63.5001 26.4533C62.4706 20.2808 59.7516 14.8963 55.5018 10.3164C50.305 4.71533 43.8932 1.37943 36.326 0.292215C34.9232 0.0900387 33.51 -0.0131066 32.0927 0.00133449C31.4305 0.00752355 30.9704 0.395369 30.892 0.966825C30.8136 1.53622 31.0736 1.95088 31.5749 2.17369C31.8101 2.2789 32.1051 2.27065 32.3733 2.27684C34.9644 2.33666 37.5143 2.6812 40.0126 3.38262C55.7906 7.8078 65.0432 24.2459 60.6263 39.9971C55.9618 56.6291 38.1332 65.8075 21.8808 59.9444C3.70762 53.384 -3.44899 31.2788 7.40868 15.2924C7.74908 14.789 7.94712 14.789 8.42987 15.0944C10.7363 16.5529 13.5668 16.2311 15.3987 14.3352C18.0043 11.6368 19.9745 8.46796 21.9757 5.32805C22.5182 4.47602 21.9426 3.52291 20.9276 3.57242C17.3731 3.74365 13.8329 3.99947 10.3258 4.71121C6.78565 5.42914 4.75151 9.3303 6.24307 12.5548C6.36066 12.8085 6.28227 12.9674 6.13992 13.1634C3.02476 17.4462 1.09171 22.2097 0.322209 27.4498C0.221121 28.1326 0.270634 28.8423 0.00244141 29.4984C0.00244141 29.6655 0.00244141 29.8326 0.00244141 29.9976C0.105592 30.4556 0.105592 30.9136 0.00244141 31.3737C0.00244141 31.7491 0.00244141 32.1246 0.00244141 32.498C0.109718 32.9972 0.109718 33.4986 0.00244141 33.9978C0.00244141 34.1649 0.00244141 34.332 0.00244141 34.4971C0.140664 35.6895 0.169546 36.8922 0.410919 38.0743C1.89629 45.3423 5.39723 51.4406 11.0045 56.3073C15.7866 60.456 21.3196 62.9729 27.5974 63.8414C28.2307 63.9281 28.8764 63.8806 29.5077 64.0023C29.6748 64.0023 29.8419 64.0023 30.007 64.0023C30.5062 63.8951 31.0075 63.8951 31.5068 64.0023C31.841 64.0023 32.1731 64.0023 32.5074 64.0023C32.9653 63.8992 33.4233 63.8992 33.8834 64.0023C34.0092 64.0023 34.133 64.0023 34.2589 64.0023C34.2836 63.9054 34.3579 63.8868 34.4466 63.8847C35.4905 63.8538 36.5179 63.6908 37.5411 63.5052C45.3703 62.0879 51.8564 58.3105 56.8324 52.1297C62.8874 44.6079 65.0907 35.9886 63.5001 26.4533ZM10.9303 6.91863C13.4925 6.3513 16.1043 6.14087 18.7016 5.97583C18.7821 6.07898 18.7573 6.14706 18.7078 6.22133C17.3442 8.26165 15.9496 10.2772 14.359 12.1484C13.0201 13.7245 11.3222 14.1268 9.7729 13.2748C9.32728 13.0293 9.18287 12.8395 9.61611 12.4455C9.93794 12.1525 10.2226 11.8162 10.4991 11.4779C10.9818 10.8879 10.9591 10.2483 10.464 9.80892C9.97301 9.37156 9.34379 9.42932 8.79915 9.97396C8.57016 10.203 8.3556 10.4485 8.04615 10.7827C7.96157 8.68045 8.94769 7.35805 10.9303 6.91863Z" fill="url(#paint4_linear_222_2105)"/>
<path d="M31.7205 10.2756C19.4146 10.4118 9.72662 20.11 9.73487 32.2984C9.74312 44.4454 19.6394 54.3066 31.7431 54.2716C43.8304 54.2365 53.7494 44.5114 53.6998 32.2509C53.6524 19.8006 43.8407 10.4242 31.7205 10.2756ZM42.9247 16.0995C45.912 18.21 48.1751 20.9167 49.6873 24.2485C49.7698 24.4279 49.8193 24.5909 49.7182 24.7787C48.9652 26.2104 48.3216 27.7081 47.255 28.9542C47.1085 29.1275 46.9497 29.3132 46.7578 29.4204C45.3075 30.2168 44.9093 31.5763 44.7484 33.0761C44.5586 34.8338 44.5504 36.6101 44.1357 38.343C44.014 38.8505 43.8716 39.3498 43.6179 39.8057C43.2878 40.3998 42.8422 40.8496 42.0871 40.7732C41.3671 40.699 40.7544 40.4432 40.4512 39.7149C39.8199 38.1965 39.2567 36.6513 39.0174 35.0215C38.8853 34.1221 38.4933 33.431 37.8538 32.8182C36.5005 31.5165 35.0048 30.3818 33.6164 29.1234C33.4781 28.9975 33.342 28.8696 33.113 28.6571C35.0357 28.3992 36.8656 28.3827 38.6873 28.4158C41.299 28.4611 43.2177 26.722 44.0367 24.7209C44.3729 23.8998 44.1749 23.3675 43.3806 22.988C41.9551 22.3072 40.4986 21.7006 38.9967 21.2158C38.5181 21.0611 38.5078 20.8713 38.7492 20.4896C39.7869 18.8619 41.1319 17.4962 42.4523 16.1099C42.6235 15.9324 42.7411 15.9716 42.9247 16.0995ZM13.4112 25.0076C14.7996 21.6552 16.9018 18.8578 19.856 16.5823C20.1284 17.9253 20.4667 19.159 21.1207 20.2916C21.5003 20.9476 22.0057 21.4964 22.4905 22.0658C23.3611 23.0911 23.4436 23.7905 22.6432 24.8488C21.622 26.198 20.4048 27.376 19.0205 28.3436C17.9581 29.0883 17.2979 28.882 16.613 27.77C15.9714 26.7282 14.9461 26.2269 13.8403 25.8948C13.2915 25.7318 13.1863 25.5523 13.4112 25.0076ZM45.815 46.0236C42.7597 49.1883 39.0215 51.1213 34.652 51.7547C28.9539 52.5799 23.8129 51.1935 19.3423 47.5956C15.3958 44.4186 13.0336 40.2637 12.2435 35.234C11.8825 32.942 11.9918 30.6706 12.3797 28.3972C12.4477 27.9949 12.5777 27.834 13.0109 27.997C13.8196 28.3002 14.5211 28.6613 15.01 29.4638C16.0106 31.0997 18.1479 31.5474 19.9055 30.4664C21.8572 29.2657 23.4828 27.6648 24.7743 25.7792C25.8945 24.1453 25.7253 22.2391 24.3122 20.7413C22.9898 19.3405 22.344 17.6984 22.0408 15.8499C21.9521 15.3032 22.1109 15.0536 22.6019 14.804C26.008 13.071 29.612 12.3469 33.4121 12.6543C35.7929 12.8482 38.0684 13.4836 40.2304 14.5193C40.6306 14.7111 40.5172 14.8266 40.2882 15.066C39.1184 16.2831 37.9755 17.523 37.043 18.9362C36.7336 19.4066 36.4613 19.8975 36.2859 20.4319C35.863 21.7109 36.3004 22.6496 37.5567 23.1179C38.8585 23.6027 40.1788 24.0401 41.4992 24.6528C40.7441 25.6678 39.8034 26.1423 38.5779 26.1382C36.7047 26.132 34.8274 26.1072 32.9665 26.3837C32.3476 26.4745 31.7411 26.6065 31.1903 26.9263C30.3011 27.44 30.0638 28.3188 30.6002 29.21C31.0706 29.9919 31.7803 30.551 32.4508 31.141C33.6226 32.1746 34.817 33.1813 36.0053 34.1943C36.4468 34.5697 36.7109 35.005 36.812 35.6095C37.107 37.3796 37.695 39.0671 38.4191 40.7052C39.1679 42.401 40.6121 43.0735 42.3367 43.0673C43.9707 43.0611 45.0744 42.0936 45.7593 40.6515C46.403 39.2961 46.6031 37.8334 46.7619 36.3625C46.894 35.1412 46.9146 33.9116 47.1209 32.6965C47.2199 32.1168 47.4489 31.6691 47.9915 31.3473C48.9302 30.7903 49.5037 29.8764 50.0751 28.979C50.3289 28.5787 50.562 28.1641 50.8488 27.6813C51.1644 28.6633 51.2861 29.6061 51.3521 30.5407C51.7689 36.5028 49.9802 41.7099 45.815 46.0236Z" fill="url(#paint5_linear_222_2105)"/>
<path d="M33.7452 37.0843C33.1346 33.9011 31.1664 31.8154 28.0018 31.1923C25.3219 30.6642 22.8917 31.4151 20.7069 32.9768C19.9766 33.4988 19.4877 34.26 19.4155 35.176C19.2731 36.9812 19.727 38.6378 20.8555 40.0778C21.6972 41.1485 22.9515 41.3486 24.1749 41.6044C25.947 41.9716 26.0749 41.9221 25.9346 44.0903C25.9326 44.111 25.9264 44.1316 25.9243 44.1522C25.7696 45.3921 25.5447 46.6134 25.161 47.8079C24.8784 48.695 25.1094 49.1819 25.9594 49.5594C26.4112 49.7616 26.8857 49.9328 27.3664 50.0504C29.3056 50.5249 30.7559 49.7719 31.3893 47.8904C31.9525 46.2194 32.5198 44.5504 33.149 42.902C33.6359 41.6292 33.9412 40.3191 33.9226 38.9472C33.9082 38.3201 33.8628 37.6991 33.7452 37.0843ZM31.0324 42.0211C30.4279 43.6984 29.7615 45.3529 29.2788 47.0734C29.2169 47.2963 29.1529 47.5253 28.9796 47.68C28.598 48.0204 28.14 47.9482 27.748 47.7584C27.4159 47.5995 27.6944 47.2839 27.7439 47.0528C27.9853 45.9347 28.2328 44.8206 28.2535 43.6695C28.2658 42.9557 28.1792 42.2584 27.977 41.5755C27.5954 40.2861 26.5639 39.8034 25.39 39.5125C24.8268 39.3722 24.2533 39.267 23.6839 39.1515C22.9598 39.007 22.444 38.6275 22.1696 37.9157C21.9819 37.4309 21.8065 36.9461 21.7075 36.4345C21.5136 35.4401 21.7158 34.8748 22.5967 34.4003C24.1274 33.5772 25.7448 33.1151 27.5087 33.4328C29.6212 33.8103 30.8776 35.0894 31.4078 37.1318C31.5646 37.7383 31.6554 38.3531 31.6368 39.0009C31.6863 40.0468 31.3851 41.0432 31.0324 42.0211Z" fill="url(#paint6_linear_222_2105)"/>
<defs>
<linearGradient id="paint0_linear_222_2105" x1="4.86531e-10" y1="33.2387" x2="0.15359" y2="33.2387" gradientUnits="userSpaceOnUse">
<stop stop-color="#57EFB8"/>
<stop offset="0.0572917" stop-color="#31D9BA"/>
<stop offset="0.473958" stop-color="#01BCBD"/>
<stop offset="1" stop-color="#00A1D4"/>
</linearGradient>
<linearGradient id="paint1_linear_222_2105" x1="30.0039" y1="63.9264" x2="31.5037" y2="63.9264" gradientUnits="userSpaceOnUse">
<stop stop-color="#57EFB8"/>
<stop offset="0.0572917" stop-color="#31D9BA"/>
<stop offset="0.473958" stop-color="#01BCBD"/>
<stop offset="1" stop-color="#00A1D4"/>
</linearGradient>
<linearGradient id="paint2_linear_222_2105" x1="4.95422e-10" y1="30.6768" x2="0.156396" y2="30.6768" gradientUnits="userSpaceOnUse">
<stop stop-color="#57EFB8"/>
<stop offset="0.0572917" stop-color="#31D9BA"/>
<stop offset="0.473958" stop-color="#01BCBD"/>
<stop offset="1" stop-color="#00A1D4"/>
</linearGradient>
<linearGradient id="paint3_linear_222_2105" x1="32.5054" y1="63.9254" x2="33.8814" y2="63.9254" gradientUnits="userSpaceOnUse">
<stop stop-color="#57EFB8"/>
<stop offset="0.0572917" stop-color="#31D9BA"/>
<stop offset="0.473958" stop-color="#01BCBD"/>
<stop offset="1" stop-color="#00A1D4"/>
</linearGradient>
<linearGradient id="paint4_linear_222_2105" x1="0.00244161" y1="31.5013" x2="63.9997" y2="31.5013" gradientUnits="userSpaceOnUse">
<stop stop-color="#57EFB8"/>
<stop offset="0.0572917" stop-color="#31D9BA"/>
<stop offset="0.473958" stop-color="#01BCBD"/>
<stop offset="1" stop-color="#00A1D4"/>
</linearGradient>
<linearGradient id="paint5_linear_222_2105" x1="9.73486" y1="31.93" x2="53.7" y2="31.93" gradientUnits="userSpaceOnUse">
<stop stop-color="#57EFB8"/>
<stop offset="0.0572917" stop-color="#31D9BA"/>
<stop offset="0.473958" stop-color="#01BCBD"/>
<stop offset="1" stop-color="#00A1D4"/>
</linearGradient>
<linearGradient id="paint6_linear_222_2105" x1="19.3901" y1="40.4569" x2="33.9234" y2="40.4569" gradientUnits="userSpaceOnUse">
<stop stop-color="#57EFB8"/>
<stop offset="0.0572917" stop-color="#31D9BA"/>
<stop offset="0.473958" stop-color="#01BCBD"/>
<stop offset="1" stop-color="#00A1D4"/>
</linearGradient>
</defs>
</svg>
