<svg width="64" height="50" viewBox="0 0 64 50" fill="none" xmlns="http://www.w3.org/2000/svg">
<path d="M63.6604 30.9255C63.2749 29.1824 62.5184 27.6037 61.7382 26.0159C59.2496 20.9492 56.8085 15.8587 54.3674 10.7682C53.5489 9.0616 52.4672 7.5414 50.8739 6.54011C49.7447 5.83117 49.0467 4.92489 48.4584 3.76829C47.1666 1.23401 44.2193 -0.284369 41.5078 0.044522C38.3961 0.420919 35.9806 2.49658 35.2242 5.40178C34.8752 6.73745 35.0323 8.09137 34.9866 9.43983C34.9793 9.66457 35.0323 9.8948 34.9136 10.1122C34.349 11.1409 33.9817 12.2409 33.7771 13.3938C33.735 13.6295 33.6364 13.6953 33.4098 13.6935C32.4725 13.6843 31.5351 13.6807 30.5978 13.6953C30.342 13.699 30.247 13.6186 30.1903 13.3628C30.0588 12.7543 29.9985 12.0874 29.6933 11.5703C28.915 10.2511 28.9588 8.83869 28.9899 7.40801C28.9935 7.24174 28.9917 7.07547 28.988 6.90737C28.862 2.52034 24.5334 -0.816075 20.267 0.192522C17.9574 0.738846 16.2618 2.08547 15.266 4.23788C14.8713 5.09117 14.4237 5.81473 13.5302 6.2295C12.9674 6.49078 12.5216 6.95488 12.0557 7.37148C10.2376 8.99218 9.40627 11.2158 8.40498 13.3317C8.18755 13.7885 8.37757 14.2471 8.86543 14.4846C9.35328 14.7204 9.75709 14.5523 10.0586 14.1283C10.1536 13.995 10.2102 13.8342 10.2833 13.6843C10.731 12.7708 11.1329 11.8316 11.6354 10.9491C13.2981 8.03291 15.8379 6.41769 19.1816 6.277C24.3068 6.06139 28.4764 10.136 28.4911 15.2722C28.502 18.8534 28.4929 22.4365 28.4929 26.0196C28.4929 26.1932 28.4929 26.3667 28.4929 26.6755C28.1238 26.1146 27.8515 25.6797 27.561 25.2576C26.8576 24.2417 26.0226 23.3428 25.0889 22.5388C24.6047 22.1222 24.0748 22.1496 23.7057 22.5735C23.364 22.9645 23.4097 23.4871 23.8281 23.9092C23.9597 24.0426 24.1077 24.1577 24.2429 24.2892C27.5976 27.5471 29.052 31.5139 28.312 36.1238C27.17 43.2406 20.8882 47.9639 13.7275 47.2586C5.72818 46.4711 0.200988 38.4224 2.31137 30.635C4.44368 22.769 12.803 18.678 20.3949 21.7824C21.1623 22.0966 21.6739 21.9559 21.9041 21.3694C22.127 20.8048 21.8804 20.3754 21.1056 20.0648C16.3331 18.1481 11.7249 18.4843 7.27944 21.0771C7.08759 21.1885 6.92863 21.4553 6.61984 21.3183C6.67283 21.194 6.71668 21.0789 6.76967 20.9693C7.30137 19.8657 7.8477 18.7712 8.36113 17.6584C8.5877 17.1669 8.39219 16.6462 7.96281 16.4251C7.50784 16.1912 6.967 16.3703 6.68744 16.8563C6.61436 16.9824 6.55954 17.1176 6.49559 17.2473C4.96077 20.401 3.44056 23.562 1.88564 26.7048C1.30277 27.8815 0.792992 29.0746 0.456792 30.3481C0.29052 30.9767 0.305137 31.6491 0 32.2429C0 33.4507 0 34.6584 0 35.8662C0.250322 36.0544 0.169929 36.354 0.219263 36.597C1.5129 42.8606 5.20195 47.0576 11.3613 48.6765C17.5408 50.3008 22.8287 48.4225 26.9709 43.5531C29.0977 41.0517 30.1446 38.0752 30.3383 34.8046C30.3584 34.4721 30.4151 34.3332 30.7842 34.3478C31.5954 34.377 32.4085 34.3734 33.2198 34.3496C33.5541 34.3387 33.6345 34.4501 33.6419 34.7681C33.6546 35.2669 33.7021 35.7675 33.7825 36.259C35.1895 44.7901 42.7978 50.3173 51.3124 48.9999C59.6991 47.6989 65.4931 39.2099 63.6604 30.9255ZM27.064 7.43725C24.221 4.86643 20.9777 3.9236 17.2631 4.60879C17.8789 2.767 20.6653 1.50809 22.9748 2.01422C25.4433 2.55506 27.3089 4.99798 27.064 7.43725ZM33.6144 29.1751C33.6144 30.1325 33.598 31.09 33.6217 32.0474C33.6309 32.4055 33.5194 32.5042 33.1704 32.4914C32.4012 32.4658 31.6301 32.4585 30.8609 32.4932C30.4425 32.5133 30.3493 32.3781 30.3529 31.978C30.3712 29.314 30.3621 26.6499 30.3621 23.9859C30.3621 21.3639 30.3749 18.7401 30.3511 16.1181C30.3475 15.6522 30.4571 15.5042 30.9322 15.5353C31.6374 15.5791 32.3482 15.581 33.0535 15.5353C33.5414 15.5024 33.6291 15.6723 33.6272 16.1254C33.6071 20.4759 33.6144 24.8264 33.6144 29.1751ZM40.8994 2.04162C43.1778 1.46606 45.7377 2.56785 46.7682 4.6289C44.9575 4.25433 43.2016 4.30914 41.4676 4.81161C39.7482 5.3086 38.2463 6.19112 36.8796 7.48293C36.8047 4.8445 38.4583 2.6592 40.8994 2.04162ZM35.4891 15.2447C35.5001 11.1117 38.3249 7.49024 42.2807 6.51818C46.3114 5.52786 50.5158 7.36782 52.4032 11.0751C54.108 14.4207 55.6903 17.8284 57.3256 21.2086C57.3402 21.2397 57.3311 21.2817 57.3402 21.4681C53.5653 19.038 49.5583 18.2596 45.2827 19.2773C41.0218 20.2932 37.8224 22.7964 35.5786 26.5549C35.3941 26.438 35.4909 26.2553 35.4909 26.1127C35.4855 22.4895 35.48 18.868 35.4891 15.2447ZM48.8147 47.3499C41.4676 47.3573 35.4782 41.3587 35.4873 34.0006C35.4964 26.6719 41.4676 20.7263 48.8128 20.7317C56.18 20.7372 62.1146 26.7029 62.1055 34.0938C62.0964 41.3733 56.1124 47.3426 48.8147 47.3499Z" fill="url(#paint0_linear_222_2133)"/>
<path d="M15.1819 22.7251C8.9293 22.7196 3.86621 27.7772 3.86621 34.0261C3.86438 40.2678 8.94026 45.3528 15.1709 45.3528C21.3815 45.3528 26.4811 40.2824 26.4902 34.1011C26.4975 27.7973 21.4619 22.7306 15.1819 22.7251ZM15.1526 43.4817C9.94886 43.4744 5.72992 39.2299 5.73723 34.0079C5.74454 28.7913 9.97261 24.5852 15.2001 24.5961C20.4204 24.6071 24.6229 28.8279 24.6174 34.0554C24.6119 39.261 20.3674 43.4891 15.1526 43.4817Z" fill="url(#paint1_linear_222_2133)"/>
<path d="M60.1084 34.0663C60.1102 39.9699 55.5661 44.8302 49.5784 45.3308C43.9069 45.8059 38.6044 41.6344 37.6324 35.9337C36.4795 29.1622 41.7381 22.7799 48.5114 22.7305C49.2514 22.7251 49.6862 23.043 49.7136 23.6094C49.741 24.1923 49.2897 24.5723 48.5315 24.5997C43.684 24.7824 39.741 28.5026 39.3755 33.2386C38.9991 38.0934 42.3045 42.4219 47.0807 43.33C51.7144 44.2107 56.3371 41.4371 57.8044 36.8929C59.2533 32.4072 57.1045 27.4976 52.8144 25.4877C52.6645 25.4165 52.511 25.3544 52.363 25.2776C51.8167 24.9926 51.6285 24.5449 51.8423 24.0497C52.067 23.5308 52.5531 23.3518 53.1432 23.5966C55.0106 24.3677 56.5637 25.5553 57.7879 27.1614C59.3319 29.1878 60.1084 31.521 60.1084 34.0663Z" fill="url(#paint2_linear_222_2133)"/>
<defs>
<linearGradient id="paint0_linear_222_2133" x1="2.02735e-07" y1="24.2393" x2="64" y2="24.2393" gradientUnits="userSpaceOnUse">
<stop stop-color="#57EFB8"/>
<stop offset="0.0572917" stop-color="#31D9BA"/>
<stop offset="0.473958" stop-color="#01BCBD"/>
<stop offset="1" stop-color="#00A1D4"/>
</linearGradient>
<linearGradient id="paint1_linear_222_2133" x1="3.86621" y1="33.8622" x2="26.4902" y2="33.8622" gradientUnits="userSpaceOnUse">
<stop stop-color="#57EFB8"/>
<stop offset="0.0572917" stop-color="#31D9BA"/>
<stop offset="0.473958" stop-color="#01BCBD"/>
<stop offset="1" stop-color="#00A1D4"/>
</linearGradient>
<linearGradient id="paint2_linear_222_2133" x1="37.4731" y1="33.8723" x2="60.1084" y2="33.8723" gradientUnits="userSpaceOnUse">
<stop stop-color="#57EFB8"/>
<stop offset="0.0572917" stop-color="#31D9BA"/>
<stop offset="0.473958" stop-color="#01BCBD"/>
<stop offset="1" stop-color="#00A1D4"/>
</linearGradient>
</defs>
</svg>
