<svg width="140" height="32" viewBox="0 0 140 32" fill="none" xmlns="http://www.w3.org/2000/svg">
<path d="M49.4962 19.6769V24.8474H45.3888C41.5559 24.8474 39.223 22.5333 39.223 18.7232V12.2577H36.0478V10.8786L43.8178 2.70679H45.0434V7.71367H49.4015V12.2577H45.1948V17.7087C45.1948 18.9382 45.9424 19.6769 47.2059 19.6769H49.4962V19.6769Z" fill="#34D0B4"/>
<path d="M63.5792 7.63428V13.0339H61.2605C59.1453 13.0339 58.2604 13.9501 58.2604 16.1334V24.8428H52.2886V7.71375H56.2919L57.2241 9.61646C58.4449 8.21865 59.9355 7.63428 61.9987 7.63428H63.5792Z" fill="#34D0B4"/>
<path d="M65.8359 7.71387H71.8077V24.8429H65.8359V7.71387Z" fill="#34D0B4"/>
<path d="M92.7088 14.3991V24.8429H86.737V15.2125C86.737 13.2163 85.9799 12.2299 84.4751 12.2299C82.6107 12.2299 81.5413 13.5155 81.5413 15.694V24.8429H75.5695V7.71388H79.762L80.5807 9.48102C81.8725 8.05983 83.7984 7.20898 86.0414 7.20898C90.0636 7.20898 92.7088 10.0327 92.7088 14.3991Z" fill="#34D0B4"/>
<path d="M96.2766 7.71387H102.248V24.8429H96.2766V7.71387Z" fill="#34D0B4"/>
<path d="M117.703 19.6769V24.8474H113.596C109.763 24.8474 107.43 22.5333 107.43 18.7232V12.2577H104.255V10.8786L112.025 2.70679H113.25V7.71367H117.609V12.2577H113.402V17.7087C113.402 18.9382 114.15 19.6769 115.413 19.6769H117.703V19.6769Z" fill="#34D0B4"/>
<path d="M68.8218 5.5632C70.3768 5.5632 71.6374 4.31784 71.6374 2.7816C71.6374 1.24537 70.3768 0 68.8218 0C67.2669 0 66.0063 1.24537 66.0063 2.7816C66.0063 4.31784 67.2669 5.5632 68.8218 5.5632Z" fill="#34D0B4"/>
<path d="M99.357 5.5632C100.912 5.5632 102.173 4.31784 102.173 2.7816C102.173 1.24537 100.912 0 99.357 0C97.8021 0 96.5415 1.24537 96.5415 2.7816C96.5415 4.31784 97.8021 5.5632 99.357 5.5632Z" fill="#34D0B4"/>
<path d="M115.428 32C116.983 32 118.244 30.7546 118.244 29.2184C118.244 27.6821 116.983 26.4368 115.428 26.4368C113.873 26.4368 112.613 27.6821 112.613 29.2184C112.613 30.7546 113.873 32 115.428 32Z" fill="#34D0B4"/>
<path d="M139.102 7.69507H133.045L131.98 10.6263H131.976L128.862 19.1908L125.521 10.6263H125.512L124.371 7.69974H118.305L119.639 10.6263H119.63L126.132 24.8896C125.398 26.825 124.774 27.358 122.696 27.358H121.206V31.9581H123.061C127.125 31.9581 129.075 30.2377 131.195 25.4786L137.791 10.6216L139.102 7.69507Z" fill="#34D0B4"/>
<path d="M27.1424 12.3792C27.1093 12.3792 27.0761 12.3792 27.043 12.3792L8.82948 12.2529V12.2576C8.14807 12.2249 7.45719 12.4633 6.93667 12.9729C5.94768 13.9406 5.93821 15.5207 6.92247 16.4978C7.43826 17.012 8.11967 17.2551 8.79635 17.2318L27.0194 17.358C27.6818 17.3767 28.3538 17.1383 28.8601 16.638C29.8491 15.6703 29.8586 14.0902 28.8743 13.1131C28.3916 12.641 27.7718 12.3979 27.1424 12.3792Z" fill="url(#paint0_linear_3_2)"/>
<path d="M27.0054 6.30181L17.1391 6.23169C17.106 6.23169 17.0729 6.23169 17.0398 6.23169C16.4104 6.24104 15.7858 6.47946 15.3031 6.95163C14.3141 7.91935 14.3047 9.49948 15.2889 10.4766C15.7621 10.9487 16.382 11.1918 17.0067 11.2105H17.0161C17.0492 11.2105 17.0824 11.2105 17.1155 11.2105L27.0385 11.2806C27.6963 11.29 28.354 11.0516 28.8604 10.5607C29.8494 9.59298 29.8588 8.01285 28.8746 7.03578C28.3588 6.52621 27.6774 6.28311 27.0054 6.30181Z" fill="url(#paint1_linear_3_2)"/>
<path d="M27.218 18.3961H27.1376C27.1044 18.3961 27.0761 18.3961 27.0429 18.3961L2.56892 18.2325C1.91117 18.2185 1.24869 18.4616 0.747094 18.9525C-0.241898 19.9202 -0.251362 21.5003 0.732898 22.4774C1.23922 22.9823 1.91117 23.2254 2.57839 23.2113L27.0098 23.375C27.0477 23.375 27.0808 23.375 27.1186 23.375H27.1849V23.3703C27.7906 23.3469 28.3916 23.1085 28.8553 22.6503C29.8443 21.6826 29.8537 20.1025 28.8695 19.1254C28.4105 18.672 27.819 18.4335 27.218 18.3961Z" fill="url(#paint2_linear_3_2)"/>
<defs>
<linearGradient id="paint0_linear_3_2" x1="6.18589" y1="14.8076" x2="29.601" y2="14.8076" gradientUnits="userSpaceOnUse">
<stop stop-color="#57EFB8"/>
<stop offset="0.00934389" stop-color="#57EFB8"/>
<stop offset="0.2809" stop-color="#57EFB8"/>
<stop offset="0.6685" stop-color="#01BCBD"/>
<stop offset="0.8876" stop-color="#00A1D4"/>
<stop offset="1" stop-color="#00A1D4"/>
</linearGradient>
<linearGradient id="paint1_linear_3_2" x1="14.5498" y1="8.75874" x2="29.6013" y2="8.75874" gradientUnits="userSpaceOnUse">
<stop stop-color="#57EFB8"/>
<stop offset="0.00934389" stop-color="#57EFB8"/>
<stop offset="0.2809" stop-color="#57EFB8"/>
<stop offset="0.6685" stop-color="#01BCBD"/>
<stop offset="0.8876" stop-color="#00A1D4"/>
<stop offset="1" stop-color="#00A1D4"/>
</linearGradient>
<linearGradient id="paint2_linear_3_2" x1="-0.000564906" y1="20.8049" x2="29.6009" y2="20.8049" gradientUnits="userSpaceOnUse">
<stop stop-color="#57EFB8"/>
<stop offset="0.00934389" stop-color="#57EFB8"/>
<stop offset="0.2809" stop-color="#57EFB8"/>
<stop offset="0.6685" stop-color="#01BCBD"/>
<stop offset="0.8876" stop-color="#00A1D4"/>
<stop offset="1" stop-color="#00A1D4"/>
</linearGradient>
</defs>
</svg>
