<svg width="64" height="64" viewBox="0 0 64 64" fill="none" xmlns="http://www.w3.org/2000/svg">
<path d="M63.9366 30.8911C63.8391 28.7618 61.4725 26.3495 58.4892 26.4983C56.2737 26.6081 54.6359 27.7325 53.6951 29.7691C53.4611 30.2764 53.1613 30.4789 52.5983 30.4691C50.8702 30.4374 49.1422 30.4423 47.4166 30.4691C46.8925 30.4764 46.7268 30.3277 46.7804 29.7935C46.9169 28.4276 46.4953 27.252 45.4813 26.2983C44.8525 25.708 44.1091 25.3641 43.2683 25.2251C42.6906 25.13 42.5298 24.647 42.3348 24.2299C42.1666 23.8689 42.5176 23.6689 42.7272 23.4567C44.3846 21.7884 46.0541 20.1298 47.709 18.4566C48.0186 18.142 48.2818 18.0225 48.74 18.22C52.63 19.8981 56.4468 16.8224 56.3859 12.8857C56.3493 10.6149 54.5554 8.52219 52.3472 7.94656C50.044 7.34411 47.5945 8.27096 46.3393 10.232C45.3254 11.815 45.1913 13.5052 45.8226 15.2565C45.9834 15.7029 45.9493 16.0273 45.5959 16.3736C43.9337 18.0103 42.2885 19.6615 40.6506 21.3201C40.3435 21.6323 40.0949 21.6738 39.7488 21.3811C38.1109 19.9908 36.2245 19.1078 34.1138 18.7151C33.7116 18.6395 33.5532 18.4273 33.5532 18.0298C33.558 15.7395 33.5556 13.4467 33.5556 11.1564C33.5556 10.8027 33.6897 10.5637 34.0211 10.4222C34.2892 10.3076 34.5525 10.1808 34.8011 10.0271C36.629 8.91 37.5625 7.24654 37.5114 5.13673C37.4504 2.60007 35.4957 0.190249 32.8902 0C32.2248 0 31.557 0 30.8916 0C30.8258 0.209762 30.6186 0.163416 30.4773 0.209758C28.1911 0.975633 26.7385 2.89032 26.68 5.23672C26.6263 7.48557 28.0424 9.52952 30.2774 10.3417C30.6552 10.4783 30.6771 10.671 30.6747 10.9808C30.6698 13.3565 30.6528 15.7297 30.6869 18.1054C30.6942 18.6029 30.5602 18.7761 30.0751 18.8493C27.8401 19.1834 25.8757 20.1249 24.1744 21.603C23.8966 21.8445 23.7649 21.864 23.492 21.5908C21.7103 19.781 19.9116 17.9859 18.0982 16.2053C17.8082 15.92 17.8082 15.7321 17.9788 15.3712C18.8952 13.4443 18.7027 11.5881 17.3573 9.9393C15.9631 8.2295 14.1254 7.4124 11.9343 7.93924C9.82356 8.44413 8.43186 9.87343 7.95658 11.9881C7.46912 14.1565 8.27342 15.9834 9.97222 17.3566C11.6491 18.7078 13.5209 18.8786 15.4586 17.9224C15.7828 17.7639 15.9485 17.7956 16.1922 18.0444C18.0397 19.9347 19.8969 21.8177 21.7737 23.6836C22.0491 23.9568 22.0174 24.1299 21.8273 24.4129C21.3764 25.0885 21.023 25.8178 20.7695 26.591C20.6696 26.8983 20.499 27.0471 20.1894 27.1495C18.4541 27.7203 17.0624 28.7691 16.0484 30.2911C15.8608 30.5716 15.6731 30.6691 15.3465 30.6643C13.9304 30.6472 12.5143 30.635 11.1007 30.6691C10.6327 30.6813 10.4353 30.5472 10.2671 30.0984C9.21423 27.291 6.05548 25.9227 3.30376 27.0642C0.4253 28.2593 -0.693418 31.3765 0.43018 34.1131C1.24668 36.1083 3.28669 37.3888 5.4169 37.3352C7.61535 37.2791 9.50914 35.9327 10.2988 33.8643C10.3963 33.6082 10.4085 33.3204 10.8399 33.3326C12.0244 33.3668 13.2114 33.3521 14.3984 33.3399C14.7006 33.3375 14.7835 33.4156 14.7445 33.7302C14.4739 35.9278 15.0857 37.8864 16.436 39.6182C17.3621 40.8084 18.5735 41.6182 20.0481 42.189C18.7782 43.4524 17.5449 44.6598 16.336 45.8915C16.0509 46.1818 15.8559 46.25 15.4513 46.0622C11.9465 44.45 7.92489 46.8623 7.79327 50.6282C7.71528 52.8576 8.98025 54.8796 10.9983 55.7528C13.031 56.6333 15.3757 56.1747 16.9234 54.5966C18.4784 53.0112 18.8855 50.6477 17.9227 48.5916C17.7643 48.2525 17.7838 48.0623 18.0568 47.7964C19.6825 46.2135 21.2911 44.611 22.8899 43.0012C23.1459 42.7426 23.4018 42.6402 23.7649 42.6426C25.8683 42.6597 27.9693 42.667 30.0727 42.6378C30.565 42.6304 30.6942 42.7621 30.6918 43.2548C30.6698 46.4842 30.6723 49.7111 30.6893 52.9405C30.6918 53.3551 30.5894 53.5381 30.1751 53.6917C27.6208 54.6308 26.1974 57.3284 26.8457 59.9212C27.494 62.5042 29.7339 64.1286 32.4539 63.992C34.7572 63.8749 36.8972 61.9358 37.2627 59.6285C37.682 56.9894 36.3049 54.5747 33.8213 53.6722C33.4532 53.5381 33.3557 53.3795 33.3582 53.0137C33.3704 49.7428 33.3777 46.472 33.3533 43.2036C33.3484 42.6987 33.5312 42.6378 33.9626 42.6426C36.0636 42.6622 38.167 42.6622 40.2704 42.6426C40.6628 42.6402 40.926 42.7695 41.1917 43.0402C42.7418 44.6134 44.2993 46.1744 45.8713 47.7257C46.1687 48.0208 46.2515 48.2233 46.0517 48.6574C44.3943 52.2161 47.1192 56.3406 51.0116 56.204C53.2173 56.1259 55.1306 54.7527 55.8789 52.7088C56.6223 50.6819 56.0714 48.4038 54.4799 46.9354C52.8883 45.4647 50.5753 45.1183 48.5645 46.0866C48.2306 46.2476 48.0649 46.1842 47.8333 45.9452C46.7999 44.8866 45.747 43.85 44.7063 42.7987C44.5966 42.689 44.4236 42.6109 44.4406 42.4109C48.2818 41.1719 50.1464 37.6254 48.9521 33.7839C48.8302 33.3936 48.9033 33.3277 49.2762 33.3326C50.5046 33.3497 51.733 33.357 52.959 33.3278C53.3782 33.318 53.5561 33.4351 53.7072 33.8473C54.4847 35.979 56.5443 37.3766 58.7622 37.3303C61.0752 37.284 63.0324 35.8132 63.7685 33.5912C63.8221 33.4302 63.7831 33.2058 64 33.118C64 32.4106 64 31.7009 64 30.9935C63.9659 30.9643 63.9391 30.9301 63.9366 30.8911ZM50.8897 10.4857C52.3692 10.4978 53.5269 11.6808 53.5147 13.1638C53.5025 14.6419 52.3204 15.798 50.8361 15.7882C49.3567 15.776 48.1965 14.5931 48.2111 13.1101C48.2233 11.6271 49.403 10.4735 50.8897 10.4857ZM13.1627 15.8004C11.6857 15.7882 10.5279 14.6199 10.5279 13.1418C10.5279 11.6711 11.6978 10.493 13.1651 10.4881C14.6372 10.4832 15.8242 11.6491 15.8364 13.1126C15.8461 14.615 14.6543 15.8126 13.1627 15.8004ZM5.35597 34.6473C3.87652 34.6302 2.70175 33.4546 2.70419 31.996C2.70663 30.5082 3.91308 29.3325 5.41934 29.3496C6.87929 29.3642 8.04433 30.5618 8.03458 32.0302C8.02483 33.4863 6.81835 34.6644 5.35597 34.6473ZM13.209 53.5064C11.7222 53.5185 10.5352 52.3624 10.5231 50.8892C10.5109 49.3989 11.6637 48.216 13.1407 48.2062C14.6324 48.194 15.8096 49.3404 15.8291 50.8234C15.8486 52.3014 14.686 53.4942 13.209 53.5064ZM50.8483 48.1989C52.3229 48.1843 53.5074 49.355 53.5147 50.838C53.522 52.3234 52.357 53.5039 50.8824 53.5088C49.3981 53.5137 48.2233 52.3502 48.216 50.8721C48.2111 49.3819 49.3615 48.2135 50.8483 48.1989ZM29.3708 5.30258C29.3927 3.82449 30.5748 2.65129 32.0323 2.66348C33.5215 2.67568 34.6841 3.88059 34.6646 5.39283C34.6451 6.84897 33.441 8.01485 31.9714 7.99778C30.5187 7.9807 29.3488 6.76848 29.3708 5.30258ZM34.667 58.7114C34.6378 60.187 33.4362 61.3578 31.9835 61.3285C30.4846 61.2968 29.3415 60.0943 29.3708 58.5797C29.4 57.126 30.6138 55.9698 32.0859 55.9967C33.5385 56.0235 34.6963 57.2406 34.667 58.7114ZM46.527 36.9156C46.0955 38.7181 44.5552 39.9816 42.7004 39.9913C39.3491 40.0108 36.0002 39.9962 32.6489 39.9962C29.3391 39.9962 26.0316 40.0133 22.7218 39.9913C20.187 39.9743 17.9983 38.1254 17.5474 35.6766C17.077 33.1253 18.4565 30.6325 20.8597 29.6935C20.8987 29.6789 20.9352 29.6496 20.9742 29.6447C22.3757 29.5447 22.8851 28.6618 23.3116 27.4081C24.5571 23.747 27.9303 21.4347 31.8958 21.3152C35.5566 21.2055 39.0127 23.4323 40.5434 26.8861C41.0308 27.9861 41.2892 28.1325 42.5054 28.0105C43.0489 27.9569 43.4876 28.1569 43.7874 28.613C44.0872 29.0715 44.0823 29.5423 43.802 30.0228C43.0879 31.2545 43.2439 31.7911 44.482 32.4448C46.1297 33.318 46.9559 35.1229 46.527 36.9156ZM58.6233 34.6473C57.1512 34.6229 55.9886 33.4326 56.0032 31.9667C56.0154 30.4838 57.2389 29.3154 58.7403 29.3472C60.2002 29.3789 61.3701 30.6008 61.336 32.0545C61.2995 33.518 60.0906 34.6717 58.6233 34.6473Z" fill="url(#paint0_linear_222_2137)"/>
<defs>
<linearGradient id="paint0_linear_222_2137" x1="2.02735e-07" y1="31.5001" x2="64" y2="31.5001" gradientUnits="userSpaceOnUse">
<stop stop-color="#57EFB8"/>
<stop offset="0.0572917" stop-color="#31D9BA"/>
<stop offset="0.473958" stop-color="#01BCBD"/>
<stop offset="1" stop-color="#00A1D4"/>
</linearGradient>
</defs>
</svg>
